<svg id="visual" viewBox="0 0 480 760" width="480" height="760" xmlns="http://www.w3.org/2000/svg" xmlns:xlink="http://www.w3.org/1999/xlink" version="1.1"><rect x="0" y="0" width="480" height="760" fill="#001220"></rect><defs><linearGradient id="grad1_0" x1="0%" y1="0%" x2="100%" y2="100%"><stop offset="30%" stop-color="#fa7268" stop-opacity="1"></stop><stop offset="70%" stop-color="#fa7268" stop-opacity="1"></stop></linearGradient></defs><defs><linearGradient id="grad1_1" x1="0%" y1="0%" x2="100%" y2="100%"><stop offset="30%" stop-color="#fa7268" stop-opacity="1"></stop><stop offset="70%" stop-color="#723f71" stop-opacity="1"></stop></linearGradient></defs><defs><linearGradient id="grad1_2" x1="0%" y1="0%" x2="100%" y2="100%"><stop offset="30%" stop-color="#001220" stop-opacity="1"></stop><stop offset="70%" stop-color="#723f71" stop-opacity="1"></stop></linearGradient></defs><defs><linearGradient id="grad2_0" x1="0%" y1="0%" x2="100%" y2="100%"><stop offset="30%" stop-color="#fa7268" stop-opacity="1"></stop><stop offset="70%" stop-color="#fa7268" stop-opacity="1"></stop></linearGradient></defs><defs><linearGradient id="grad2_1" x1="0%" y1="0%" x2="100%" y2="100%"><stop offset="30%" stop-color="#723f71" stop-opacity="1"></stop><stop offset="70%" stop-color="#fa7268" stop-opacity="1"></stop></linearGradient></defs><defs><linearGradient id="grad2_2" x1="0%" y1="0%" x2="100%" y2="100%"><stop offset="30%" stop-color="#723f71" stop-opacity="1"></stop><stop offset="70%" stop-color="#001220" stop-opacity="1"></stop></linearGradient></defs><g transform="translate(480, 0)"><path d="M0 224.7C-37.4 216 -74.9 207.3 -109.5 189.7C-144.1 172 -175.9 145.5 -194.6 112.4C-213.3 79.3 -219 39.6 -224.7 0L0 0Z" fill="#2c2c4f"></path><path d="M0 149.8C-25 144 -49.9 138.2 -73 126.4C-96.1 114.7 -117.3 97 -129.7 74.9C-142.2 52.8 -146 26.4 -149.8 0L0 0Z" fill="#bd5079"></path><path d="M0 74.9C-12.5 72 -25 69.1 -36.5 63.2C-48 57.3 -58.6 48.5 -64.9 37.5C-71.1 26.4 -73 13.2 -74.9 0L0 0Z" fill="#fa7268"></path></g><g transform="translate(0, 760)"><path d="M0 -224.7C40.2 -219.4 80.4 -214 112.4 -194.6C144.3 -175.2 168 -141.8 185.3 -107C202.7 -72.2 213.7 -36.1 224.7 0L0 0Z" fill="#2c2c4f"></path><path d="M0 -149.8C26.8 -146.2 53.6 -142.7 74.9 -129.7C96.2 -116.8 112 -94.5 123.6 -71.3C135.1 -48.1 142.5 -24.1 149.8 0L0 0Z" fill="#bd5079"></path><path d="M0 -74.9C13.4 -73.1 26.8 -71.3 37.5 -64.9C48.1 -58.4 56 -47.3 61.8 -35.7C67.6 -24.1 71.2 -12 74.9 0L0 0Z" fill="#fa7268"></path></g></svg>