<svg id="visual" viewBox="0 0 900 600" width="900" height="600" xmlns="http://www.w3.org/2000/svg" xmlns:xlink="http://www.w3.org/1999/xlink" version="1.1"><rect x="0" y="0" width="900" height="600" fill="#001220"></rect><defs><linearGradient id="grad1_0" x1="33.3%" y1="0%" x2="100%" y2="100%"><stop offset="20%" stop-color="#001220" stop-opacity="1"></stop><stop offset="80%" stop-color="#001220" stop-opacity="1"></stop></linearGradient></defs><defs><linearGradient id="grad2_0" x1="0%" y1="0%" x2="66.7%" y2="100%"><stop offset="20%" stop-color="#001220" stop-opacity="1"></stop><stop offset="80%" stop-color="#001220" stop-opacity="1"></stop></linearGradient></defs><g transform="translate(900, 0)"><path d="M0 351.5C-43 353.7 -86 355.8 -105.4 324.3C-124.8 292.8 -120.6 227.7 -151.6 208.7C-182.7 189.8 -249.1 217.1 -284.4 206.6C-319.7 196.2 -324 148 -330 107.2C-336 66.5 -343.8 33.2 -351.5 0L0 0Z" fill="#FA7268"></path></g><g transform="translate(0, 600)"><path d="M0 -351.5C32.9 -331.7 65.7 -311.8 97 -298.6C128.3 -285.4 158.1 -278.8 194 -267C229.9 -255.1 271.9 -238 284.4 -206.6C296.9 -175.3 280 -129.8 286.3 -93C292.5 -56.2 322 -28.1 351.5 0L0 0Z" fill="#FA7268"></path></g></svg>