<svg id="visual" viewBox="0 0 1366 760" width="1366" height="760" xmlns="http://www.w3.org/2000/svg" xmlns:xlink="http://www.w3.org/1999/xlink" version="1.1"><rect x="0" y="0" width="1366" height="760" fill="#001220"></rect><defs><linearGradient id="grad1_0" x1="44.4%" y1="0%" x2="100%" y2="100%"><stop offset="14.05263157894737%" stop-color="#fa7268" stop-opacity="1"></stop><stop offset="85.94736842105263%" stop-color="#fa7268" stop-opacity="1"></stop></linearGradient></defs><defs><linearGradient id="grad1_1" x1="44.4%" y1="0%" x2="100%" y2="100%"><stop offset="14.05263157894737%" stop-color="#fa7268" stop-opacity="1"></stop><stop offset="85.94736842105263%" stop-color="#723f71" stop-opacity="1"></stop></linearGradient></defs><defs><linearGradient id="grad1_2" x1="44.4%" y1="0%" x2="100%" y2="100%"><stop offset="14.05263157894737%" stop-color="#001220" stop-opacity="1"></stop><stop offset="85.94736842105263%" stop-color="#723f71" stop-opacity="1"></stop></linearGradient></defs><defs><linearGradient id="grad2_0" x1="0%" y1="0%" x2="55.6%" y2="100%"><stop offset="14.05263157894737%" stop-color="#fa7268" stop-opacity="1"></stop><stop offset="85.94736842105263%" stop-color="#fa7268" stop-opacity="1"></stop></linearGradient></defs><defs><linearGradient id="grad2_1" x1="0%" y1="0%" x2="55.6%" y2="100%"><stop offset="14.05263157894737%" stop-color="#723f71" stop-opacity="1"></stop><stop offset="85.94736842105263%" stop-color="#fa7268" stop-opacity="1"></stop></linearGradient></defs><defs><linearGradient id="grad2_2" x1="0%" y1="0%" x2="55.6%" y2="100%"><stop offset="14.05263157894737%" stop-color="#723f71" stop-opacity="1"></stop><stop offset="85.94736842105263%" stop-color="#001220" stop-opacity="1"></stop></linearGradient></defs><g transform="translate(1366, 0)"><path d="M0 456C-61.7 413.7 -123.5 371.3 -195.5 338.6C-267.5 305.9 -349.8 282.8 -394.9 228C-440 173.2 -448 86.6 -456 0L0 0Z" fill="#2c2c4f"></path><path d="M0 304C-41.2 275.8 -82.3 247.5 -130.3 225.7C-178.3 203.9 -233.2 188.6 -263.3 152C-293.4 115.4 -298.7 57.7 -304 0L0 0Z" fill="#bd5079"></path><path d="M0 152C-20.6 137.9 -41.2 123.8 -65.2 112.9C-89.2 102 -116.6 94.3 -131.6 76C-146.7 57.7 -149.3 28.9 -152 0L0 0Z" fill="#fa7268"></path></g><g transform="translate(0, 760)"><path d="M0 -456C69.5 -427.1 139 -398.1 210 -363.7C281 -329.3 353.6 -289.5 394.9 -228C436.2 -166.5 446.1 -83.2 456 0L0 0Z" fill="#2c2c4f"></path><path d="M0 -304C46.3 -284.7 92.6 -265.4 140 -242.5C187.4 -219.6 235.8 -193 263.3 -152C290.8 -111 297.4 -55.5 304 0L0 0Z" fill="#bd5079"></path><path d="M0 -152C23.2 -142.4 46.3 -132.7 70 -121.2C93.7 -109.8 117.9 -96.5 131.6 -76C145.4 -55.5 148.7 -27.7 152 0L0 0Z" fill="#fa7268"></path></g></svg>