<svg id="visual" viewBox="0 0 900 600" width="900" height="600" xmlns="http://www.w3.org/2000/svg" xmlns:xlink="http://www.w3.org/1999/xlink" version="1.1"><rect x="0" y="0" width="900" height="600" fill="#001220"></rect><defs><linearGradient id="grad1_0" x1="33.3%" y1="100%" x2="100%" y2="0%"><stop offset="20%" stop-color="#fa7268" stop-opacity="1"></stop><stop offset="80%" stop-color="#fa7268" stop-opacity="1"></stop></linearGradient></defs><defs><linearGradient id="grad1_1" x1="33.3%" y1="100%" x2="100%" y2="0%"><stop offset="20%" stop-color="#fa7268" stop-opacity="1"></stop><stop offset="80%" stop-color="#723f71" stop-opacity="1"></stop></linearGradient></defs><defs><linearGradient id="grad1_2" x1="33.3%" y1="100%" x2="100%" y2="0%"><stop offset="20%" stop-color="#001220" stop-opacity="1"></stop><stop offset="80%" stop-color="#723f71" stop-opacity="1"></stop></linearGradient></defs><defs><linearGradient id="grad2_0" x1="0%" y1="100%" x2="66.7%" y2="0%"><stop offset="20%" stop-color="#fa7268" stop-opacity="1"></stop><stop offset="80%" stop-color="#fa7268" stop-opacity="1"></stop></linearGradient></defs><defs><linearGradient id="grad2_1" x1="0%" y1="100%" x2="66.7%" y2="0%"><stop offset="20%" stop-color="#723f71" stop-opacity="1"></stop><stop offset="80%" stop-color="#fa7268" stop-opacity="1"></stop></linearGradient></defs><defs><linearGradient id="grad2_2" x1="0%" y1="100%" x2="66.7%" y2="0%"><stop offset="20%" stop-color="#723f71" stop-opacity="1"></stop><stop offset="80%" stop-color="#001220" stop-opacity="1"></stop></linearGradient></defs><g transform="translate(900, 600)"><path d="M-378.6 0C-343.6 -51.4 -308.6 -102.7 -281.5 -162.5C-254.3 -222.3 -234.9 -290.4 -189.3 -327.9C-143.7 -365.3 -71.8 -371.9 0 -378.6L0 0Z" fill="#2c2c4f"></path><path d="M-252.4 0C-229.1 -34.2 -205.8 -68.5 -187.6 -108.3C-169.5 -148.2 -156.6 -193.6 -126.2 -218.6C-95.8 -243.5 -47.9 -248 0 -252.4L0 0Z" fill="#bd5079"></path><path d="M-126.2 0C-114.5 -17.1 -102.9 -34.2 -93.8 -54.2C-84.8 -74.1 -78.3 -96.8 -63.1 -109.3C-47.9 -121.8 -23.9 -124 0 -126.2L0 0Z" fill="#fa7268"></path></g><g transform="translate(0, 0)"><path d="M378.6 0C345 52.2 311.4 104.3 284.1 164C256.7 223.7 235.6 290.8 189.3 327.9C143 364.9 71.5 371.7 0 378.6L0 0Z" fill="#2c2c4f"></path><path d="M252.4 0C230 34.8 207.6 69.6 189.4 109.3C171.1 149.1 157.1 193.9 126.2 218.6C95.3 243.3 47.7 247.8 0 252.4L0 0Z" fill="#bd5079"></path><path d="M126.2 0C115 17.4 103.8 34.8 94.7 54.7C85.6 74.6 78.5 96.9 63.1 109.3C47.7 121.6 23.8 123.9 0 126.2L0 0Z" fill="#fa7268"></path></g></svg>