<svg id="visual" viewBox="0 0 900 600" width="900" height="600" xmlns="http://www.w3.org/2000/svg" xmlns:xlink="http://www.w3.org/1999/xlink" version="1.1"><rect x="0" y="0" width="900" height="600" fill="#001220"></rect><defs><linearGradient id="grad1_0" x1="33.3%" y1="100%" x2="100%" y2="0%"><stop offset="20%" stop-color="#fa7268" stop-opacity="1"></stop><stop offset="80%" stop-color="#fa7268" stop-opacity="1"></stop></linearGradient></defs><defs><linearGradient id="grad1_1" x1="33.3%" y1="100%" x2="100%" y2="0%"><stop offset="20%" stop-color="#fa7268" stop-opacity="1"></stop><stop offset="80%" stop-color="#723f71" stop-opacity="1"></stop></linearGradient></defs><defs><linearGradient id="grad1_2" x1="33.3%" y1="100%" x2="100%" y2="0%"><stop offset="20%" stop-color="#001220" stop-opacity="1"></stop><stop offset="80%" stop-color="#723f71" stop-opacity="1"></stop></linearGradient></defs><defs><linearGradient id="grad2_0" x1="0%" y1="100%" x2="66.7%" y2="0%"><stop offset="20%" stop-color="#fa7268" stop-opacity="1"></stop><stop offset="80%" stop-color="#fa7268" stop-opacity="1"></stop></linearGradient></defs><defs><linearGradient id="grad2_1" x1="0%" y1="100%" x2="66.7%" y2="0%"><stop offset="20%" stop-color="#723f71" stop-opacity="1"></stop><stop offset="80%" stop-color="#fa7268" stop-opacity="1"></stop></linearGradient></defs><defs><linearGradient id="grad2_2" x1="0%" y1="100%" x2="66.7%" y2="0%"><stop offset="20%" stop-color="#723f71" stop-opacity="1"></stop><stop offset="80%" stop-color="#001220" stop-opacity="1"></stop></linearGradient></defs><g transform="translate(900, 600)"><path d="M-351.5 0C-308.5 -41.6 -265.5 -83.2 -241.6 -139.5C-217.7 -195.8 -212.9 -266.7 -175.8 -304.4C-138.7 -342.2 -69.3 -346.9 0 -351.5L0 0Z" fill="#2c2c4f"></path><path d="M-234.4 0C-205.7 -27.7 -177 -55.5 -161.1 -93C-145.1 -130.5 -141.9 -177.8 -117.2 -203C-92.5 -228.1 -46.2 -231.3 0 -234.4L0 0Z" fill="#bd5079"></path><path d="M-117.2 0C-102.8 -13.9 -88.5 -27.7 -80.5 -46.5C-72.6 -65.3 -71 -88.9 -58.6 -101.5C-46.2 -114.1 -23.1 -115.6 0 -117.2L0 0Z" fill="#fa7268"></path></g><g transform="translate(0, 0)"><path d="M351.5 0C349.1 73.2 346.6 146.3 304.4 175.8C262.3 205.2 180.4 191 123 213C65.6 235.1 32.8 293.3 0 351.5L0 0Z" fill="#2c2c4f"></path><path d="M234.4 0C232.7 48.8 231.1 97.5 203 117.2C174.8 136.8 120.2 127.4 82 142C43.8 156.7 21.9 195.5 0 234.4L0 0Z" fill="#bd5079"></path><path d="M117.2 0C116.4 24.4 115.5 48.8 101.5 58.6C87.4 68.4 60.1 63.7 41 71C21.9 78.4 10.9 97.8 0 117.2L0 0Z" fill="#fa7268"></path></g></svg>