<svg id="visual" viewBox="0 0 900 450" width="900" height="450" xmlns="http://www.w3.org/2000/svg" xmlns:xlink="http://www.w3.org/1999/xlink" version="1.1"><path d="M0 343L10 349.8C20 356.7 40 370.3 60 367C80 363.7 100 343.3 120 343.7C140 344 160 365 180 374.8C200 384.7 220 383.3 240 381.8C260 380.3 280 378.7 300 374.5C320 370.3 340 363.7 360 358.2C380 352.7 400 348.3 420 343.5C440 338.7 460 333.3 480 337.8C500 342.3 520 356.7 540 368.8C560 381 580 391 600 395C620 399 640 397 660 395.8C680 394.7 700 394.3 720 381.7C740 369 760 344 780 344C800 344 820 369 840 374.8C860 380.7 880 367.3 890 360.7L900 354L900 451L890 451C880 451 860 451 840 451C820 451 800 451 780 451C760 451 740 451 720 451C700 451 680 451 660 451C640 451 620 451 600 451C580 451 560 451 540 451C520 451 500 451 480 451C460 451 440 451 420 451C400 451 380 451 360 451C340 451 320 451 300 451C280 451 260 451 240 451C220 451 200 451 180 451C160 451 140 451 120 451C100 451 80 451 60 451C40 451 20 451 10 451L0 451Z" fill="#fa7268"></path><path d="M0 399L10 394.3C20 389.7 40 380.3 60 379.3C80 378.3 100 385.7 120 388.2C140 390.7 160 388.3 180 380.8C200 373.3 220 360.7 240 355.8C260 351 280 354 300 360.8C320 367.7 340 378.3 360 389.3C380 400.3 400 411.7 420 408.8C440 406 460 389 480 386.3C500 383.7 520 395.3 540 395.2C560 395 580 383 600 384.3C620 385.7 640 400.3 660 402C680 403.7 700 392.3 720 390.8C740 389.3 760 397.7 780 398C800 398.3 820 390.7 840 382.3C860 374 880 365 890 360.5L900 356L900 451L890 451C880 451 860 451 840 451C820 451 800 451 780 451C760 451 740 451 720 451C700 451 680 451 660 451C640 451 620 451 600 451C580 451 560 451 540 451C520 451 500 451 480 451C460 451 440 451 420 451C400 451 380 451 360 451C340 451 320 451 300 451C280 451 260 451 240 451C220 451 200 451 180 451C160 451 140 451 120 451C100 451 80 451 60 451C40 451 20 451 10 451L0 451Z" fill="#bc5175"></path><path d="M0 409L10 408.2C20 407.3 40 405.7 60 405.3C80 405 100 406 120 406.8C140 407.7 160 408.3 180 402C200 395.7 220 382.3 240 380.8C260 379.3 280 389.7 300 392.5C320 395.3 340 390.7 360 387.7C380 384.7 400 383.3 420 389.3C440 395.3 460 408.7 480 412.5C500 416.3 520 410.7 540 407.5C560 404.3 580 403.7 600 400.3C620 397 640 391 660 386.3C680 381.7 700 378.3 720 380.7C740 383 760 391 780 396.3C800 401.7 820 404.3 840 402.5C860 400.7 880 394.3 890 391.2L900 388L900 451L890 451C880 451 860 451 840 451C820 451 800 451 780 451C760 451 740 451 720 451C700 451 680 451 660 451C640 451 620 451 600 451C580 451 560 451 540 451C520 451 500 451 480 451C460 451 440 451 420 451C400 451 380 451 360 451C340 451 320 451 300 451C280 451 260 451 240 451C220 451 200 451 180 451C160 451 140 451 120 451C100 451 80 451 60 451C40 451 20 451 10 451L0 451Z" fill="#733e6a"></path><path d="M0 428L10 431C20 434 40 440 60 434.8C80 429.7 100 413.3 120 411.3C140 409.3 160 421.7 180 426.3C200 431 220 428 240 429.3C260 430.7 280 436.3 300 434.3C320 432.3 340 422.7 360 421.5C380 420.3 400 427.7 420 430.2C440 432.7 460 430.3 480 428.2C500 426 520 424 540 425.2C560 426.3 580 430.7 600 434.3C620 438 640 441 660 442C680 443 700 442 720 436.7C740 431.3 760 421.7 780 421.7C800 421.7 820 431.3 840 433.2C860 435 880 429 890 426L900 423L900 451L890 451C880 451 860 451 840 451C820 451 800 451 780 451C760 451 740 451 720 451C700 451 680 451 660 451C640 451 620 451 600 451C580 451 560 451 540 451C520 451 500 451 480 451C460 451 440 451 420 451C400 451 380 451 360 451C340 451 320 451 300 451C280 451 260 451 240 451C220 451 200 451 180 451C160 451 140 451 120 451C100 451 80 451 60 451C40 451 20 451 10 451L0 451Z" fill="#312a48"></path></svg>