<svg id="visual" viewBox="0 0 900 450" width="900" height="450" xmlns="http://www.w3.org/2000/svg" xmlns:xlink="http://www.w3.org/1999/xlink" version="1.1"><path d="M0 350L12.5 349.2C25 348.3 50 346.7 75 340.7C100 334.7 125 324.3 150 324.3C175 324.3 200 334.7 225 340.5C250 346.3 275 347.7 300 345.2C325 342.7 350 336.3 375 339C400 341.7 425 353.3 450 363C475 372.7 500 380.3 525 377.2C550 374 575 360 600 360.5C625 361 650 376 675 378.5C700 381 725 371 750 368.2C775 365.3 800 369.7 825 362C850 354.3 875 334.7 887.5 324.8L900 315L900 451L887.5 451C875 451 850 451 825 451C800 451 775 451 750 451C725 451 700 451 675 451C650 451 625 451 600 451C575 451 550 451 525 451C500 451 475 451 450 451C425 451 400 451 375 451C350 451 325 451 300 451C275 451 250 451 225 451C200 451 175 451 150 451C125 451 100 451 75 451C50 451 25 451 12.5 451L0 451Z" fill="#a9cbff"></path><path d="M0 389L12.5 383.7C25 378.3 50 367.7 75 369.8C100 372 125 387 150 389.5C175 392 200 382 225 377.2C250 372.3 275 372.7 300 367.8C325 363 350 353 375 349.2C400 345.3 425 347.7 450 351.2C475 354.7 500 359.3 525 368.2C550 377 575 390 600 393.7C625 397.3 650 391.7 675 385.3C700 379 725 372 750 374.7C775 377.3 800 389.7 825 382.2C850 374.7 875 347.3 887.5 333.7L900 320L900 451L887.5 451C875 451 850 451 825 451C800 451 775 451 750 451C725 451 700 451 675 451C650 451 625 451 600 451C575 451 550 451 525 451C500 451 475 451 450 451C425 451 400 451 375 451C350 451 325 451 300 451C275 451 250 451 225 451C200 451 175 451 150 451C125 451 100 451 75 451C50 451 25 451 12.5 451L0 451Z" fill="#879cc7"></path><path d="M0 366L12.5 366.5C25 367 50 368 75 366.5C100 365 125 361 150 368.7C175 376.3 200 395.7 225 398.5C250 401.3 275 387.7 300 381.3C325 375 350 376 375 381.5C400 387 425 397 450 396.8C475 396.7 500 386.3 525 386.5C550 386.7 575 397.3 600 393.8C625 390.3 650 372.7 675 364.7C700 356.7 725 358.3 750 366C775 373.7 800 387.3 825 394C850 400.7 875 400.3 887.5 400.2L900 400L900 451L887.5 451C875 451 850 451 825 451C800 451 775 451 750 451C725 451 700 451 675 451C650 451 625 451 600 451C575 451 550 451 525 451C500 451 475 451 450 451C425 451 400 451 375 451C350 451 325 451 300 451C275 451 250 451 225 451C200 451 175 451 150 451C125 451 100 451 75 451C50 451 25 451 12.5 451L0 451Z" fill="#657092"></path><path d="M0 381L12.5 380.2C25 379.3 50 377.7 75 378.8C100 380 125 384 150 392.2C175 400.3 200 412.7 225 412.7C250 412.7 275 400.3 300 394.3C325 388.3 350 388.7 375 391C400 393.3 425 397.7 450 397.5C475 397.3 500 392.7 525 393.3C550 394 575 400 600 403.8C625 407.7 650 409.3 675 412.2C700 415 725 419 750 417.8C775 416.7 800 410.3 825 407.2C850 404 875 404 887.5 404L900 404L900 451L887.5 451C875 451 850 451 825 451C800 451 775 451 750 451C725 451 700 451 675 451C650 451 625 451 600 451C575 451 550 451 525 451C500 451 475 451 450 451C425 451 400 451 375 451C350 451 325 451 300 451C275 451 250 451 225 451C200 451 175 451 150 451C125 451 100 451 75 451C50 451 25 451 12.5 451L0 451Z" fill="#434760"></path><path d="M0 417L12.5 419.8C25 422.7 50 428.3 75 425.5C100 422.7 125 411.3 150 410C175 408.7 200 417.3 225 420.8C250 424.3 275 422.7 300 421.3C325 420 350 419 375 420C400 421 425 424 450 422C475 420 500 413 525 413.3C550 413.7 575 421.3 600 421.2C625 421 650 413 675 412C700 411 725 417 750 420.3C775 423.7 800 424.3 825 420.8C850 417.3 875 409.7 887.5 405.8L900 402L900 451L887.5 451C875 451 850 451 825 451C800 451 775 451 750 451C725 451 700 451 675 451C650 451 625 451 600 451C575 451 550 451 525 451C500 451 475 451 450 451C425 451 400 451 375 451C350 451 325 451 300 451C275 451 250 451 225 451C200 451 175 451 150 451C125 451 100 451 75 451C50 451 25 451 12.5 451L0 451Z" fill="#222233"></path></svg>