<svg id="visual" viewBox="0 0 900 150" width="900" height="150" xmlns="http://www.w3.org/2000/svg" xmlns:xlink="http://www.w3.org/1999/xlink" version="1.1"><path d="M0 86L12.5 82C25 78 50 70 75 71.8C100 73.7 125 85.3 150 84.2C175 83 200 69 225 70C250 71 275 87 300 95.7C325 104.3 350 105.7 375 104C400 102.3 425 97.7 450 89.7C475 81.7 500 70.3 525 67.2C550 64 575 69 600 70.7C625 72.3 650 70.7 675 68.7C700 66.7 725 64.3 750 61.5C775 58.7 800 55.3 825 56.8C850 58.3 875 64.7 887.5 67.8L900 71L900 0L887.5 0C875 0 850 0 825 0C800 0 775 0 750 0C725 0 700 0 675 0C650 0 625 0 600 0C575 0 550 0 525 0C500 0 475 0 450 0C425 0 400 0 375 0C350 0 325 0 300 0C275 0 250 0 225 0C200 0 175 0 150 0C125 0 100 0 75 0C50 0 25 0 12.5 0L0 0Z" fill="#a9cbff"></path><path d="M0 44L12.5 43.5C25 43 50 42 75 50.2C100 58.3 125 75.7 150 77.8C175 80 200 67 225 67.2C250 67.3 275 80.7 300 78.5C325 76.3 350 58.7 375 52.8C400 47 425 53 450 60.8C475 68.7 500 78.3 525 78.8C550 79.3 575 70.7 600 66.2C625 61.7 650 61.3 675 67C700 72.7 725 84.3 750 87.7C775 91 800 86 825 85.7C850 85.3 875 89.7 887.5 91.8L900 94L900 0L887.5 0C875 0 850 0 825 0C800 0 775 0 750 0C725 0 700 0 675 0C650 0 625 0 600 0C575 0 550 0 525 0C500 0 475 0 450 0C425 0 400 0 375 0C350 0 325 0 300 0C275 0 250 0 225 0C200 0 175 0 150 0C125 0 100 0 75 0C50 0 25 0 12.5 0L0 0Z" fill="#879cc7"></path><path d="M0 73L12.5 69.8C25 66.7 50 60.3 75 58C100 55.7 125 57.3 150 55.7C175 54 200 49 225 44.8C250 40.7 275 37.3 300 40.2C325 43 350 52 375 58.8C400 65.7 425 70.3 450 71.8C475 73.3 500 71.7 525 65.8C550 60 575 50 600 50.7C625 51.3 650 62.7 675 63.3C700 64 725 54 750 48.5C775 43 800 42 825 45C850 48 875 55 887.5 58.5L900 62L900 0L887.5 0C875 0 850 0 825 0C800 0 775 0 750 0C725 0 700 0 675 0C650 0 625 0 600 0C575 0 550 0 525 0C500 0 475 0 450 0C425 0 400 0 375 0C350 0 325 0 300 0C275 0 250 0 225 0C200 0 175 0 150 0C125 0 100 0 75 0C50 0 25 0 12.5 0L0 0Z" fill="#657092"></path><path d="M0 51L12.5 45C25 39 50 27 75 22.2C100 17.3 125 19.7 150 23.2C175 26.7 200 31.3 225 36.2C250 41 275 46 300 48.3C325 50.7 350 50.3 375 46C400 41.7 425 33.3 450 29.7C475 26 500 27 525 28.3C550 29.7 575 31.3 600 30.2C625 29 650 25 675 23.8C700 22.7 725 24.3 750 29.7C775 35 800 44 825 46.7C850 49.3 875 45.7 887.5 43.8L900 42L900 0L887.5 0C875 0 850 0 825 0C800 0 775 0 750 0C725 0 700 0 675 0C650 0 625 0 600 0C575 0 550 0 525 0C500 0 475 0 450 0C425 0 400 0 375 0C350 0 325 0 300 0C275 0 250 0 225 0C200 0 175 0 150 0C125 0 100 0 75 0C50 0 25 0 12.5 0L0 0Z" fill="#434760"></path><path d="M0 12L12.5 14.2C25 16.3 50 20.7 75 22C100 23.3 125 21.7 150 18.8C175 16 200 12 225 12.7C250 13.3 275 18.7 300 20.2C325 21.7 350 19.3 375 18.3C400 17.3 425 17.7 450 20.7C475 23.7 500 29.3 525 31.3C550 33.3 575 31.7 600 30.3C625 29 650 28 675 27.2C700 26.3 725 25.7 750 23.2C775 20.7 800 16.3 825 17C850 17.7 875 23.3 887.5 26.2L900 29L900 0L887.5 0C875 0 850 0 825 0C800 0 775 0 750 0C725 0 700 0 675 0C650 0 625 0 600 0C575 0 550 0 525 0C500 0 475 0 450 0C425 0 400 0 375 0C350 0 325 0 300 0C275 0 250 0 225 0C200 0 175 0 150 0C125 0 100 0 75 0C50 0 25 0 12.5 0L0 0Z" fill="#222233"></path></svg>