<svg id="visual" viewBox="0 0 900 450" width="900" height="450" xmlns="http://www.w3.org/2000/svg" xmlns:xlink="http://www.w3.org/1999/xlink" version="1.1"><path d="M0 333L12.5 341.2C25 349.3 50 365.7 75 374.3C100 383 125 384 150 379.2C175 374.3 200 363.7 225 365C250 366.3 275 379.7 300 377.7C325 375.7 350 358.3 375 360C400 361.7 425 382.3 450 380.7C475 379 500 355 525 350C550 345 575 359 600 364.8C625 370.7 650 368.3 675 365C700 361.7 725 357.3 750 363.7C775 370 800 387 825 386.5C850 386 875 368 887.5 359L900 350L900 451L887.5 451C875 451 850 451 825 451C800 451 775 451 750 451C725 451 700 451 675 451C650 451 625 451 600 451C575 451 550 451 525 451C500 451 475 451 450 451C425 451 400 451 375 451C350 451 325 451 300 451C275 451 250 451 225 451C200 451 175 451 150 451C125 451 100 451 75 451C50 451 25 451 12.5 451L0 451Z" fill="#a9cbff"></path><path d="M0 388L12.5 389.8C25 391.7 50 395.3 75 394.2C100 393 125 387 150 384.3C175 381.7 200 382.3 225 384.2C250 386 275 389 300 391.3C325 393.7 350 395.3 375 390C400 384.7 425 372.3 450 371.8C475 371.3 500 382.7 525 385C550 387.3 575 380.7 600 382.8C625 385 650 396 675 394.7C700 393.3 725 379.7 750 380.8C775 382 800 398 825 405C850 412 875 410 887.5 409L900 408L900 451L887.5 451C875 451 850 451 825 451C800 451 775 451 750 451C725 451 700 451 675 451C650 451 625 451 600 451C575 451 550 451 525 451C500 451 475 451 450 451C425 451 400 451 375 451C350 451 325 451 300 451C275 451 250 451 225 451C200 451 175 451 150 451C125 451 100 451 75 451C50 451 25 451 12.5 451L0 451Z" fill="#879cc7"></path><path d="M0 396L12.5 398C25 400 50 404 75 408.2C100 412.3 125 416.7 150 413.5C175 410.3 200 399.7 225 394C250 388.3 275 387.7 300 392.2C325 396.7 350 406.3 375 407.7C400 409 425 402 450 398.5C475 395 500 395 525 398C550 401 575 407 600 404C625 401 650 389 675 387.7C700 386.3 725 395.7 750 397.5C775 399.3 800 393.7 825 389C850 384.3 875 380.7 887.5 378.8L900 377L900 451L887.5 451C875 451 850 451 825 451C800 451 775 451 750 451C725 451 700 451 675 451C650 451 625 451 600 451C575 451 550 451 525 451C500 451 475 451 450 451C425 451 400 451 375 451C350 451 325 451 300 451C275 451 250 451 225 451C200 451 175 451 150 451C125 451 100 451 75 451C50 451 25 451 12.5 451L0 451Z" fill="#657092"></path><path d="M0 427L12.5 426.2C25 425.3 50 423.7 75 420.8C100 418 125 414 150 412.7C175 411.3 200 412.7 225 410.3C250 408 275 402 300 400.3C325 398.7 350 401.3 375 403.3C400 405.3 425 406.7 450 405.2C475 403.7 500 399.3 525 400C550 400.7 575 406.3 600 410.8C625 415.3 650 418.7 675 420.7C700 422.7 725 423.3 750 425C775 426.7 800 429.3 825 428.3C850 427.3 875 422.7 887.5 420.3L900 418L900 451L887.5 451C875 451 850 451 825 451C800 451 775 451 750 451C725 451 700 451 675 451C650 451 625 451 600 451C575 451 550 451 525 451C500 451 475 451 450 451C425 451 400 451 375 451C350 451 325 451 300 451C275 451 250 451 225 451C200 451 175 451 150 451C125 451 100 451 75 451C50 451 25 451 12.5 451L0 451Z" fill="#434760"></path><path d="M0 411L12.5 415.3C25 419.7 50 428.3 75 431.3C100 434.3 125 431.7 150 428.5C175 425.3 200 421.7 225 422.7C250 423.7 275 429.3 300 429.3C325 429.3 350 423.7 375 420C400 416.3 425 414.7 450 418C475 421.3 500 429.7 525 429.3C550 429 575 420 600 416C625 412 650 413 675 413.8C700 414.7 725 415.3 750 417.8C775 420.3 800 424.7 825 427.8C850 431 875 433 887.5 434L900 435L900 451L887.5 451C875 451 850 451 825 451C800 451 775 451 750 451C725 451 700 451 675 451C650 451 625 451 600 451C575 451 550 451 525 451C500 451 475 451 450 451C425 451 400 451 375 451C350 451 325 451 300 451C275 451 250 451 225 451C200 451 175 451 150 451C125 451 100 451 75 451C50 451 25 451 12.5 451L0 451Z" fill="#222233"></path></svg>