<svg id="visual" viewBox="0 0 900 250" width="900" height="250" xmlns="http://www.w3.org/2000/svg" xmlns:xlink="http://www.w3.org/1999/xlink" version="1.1"><path d="M0 148L7.8 152C15.7 156 31.3 164 47.2 160.7C63 157.3 79 142.7 94.8 137.8C110.7 133 126.3 138 142 132.2C157.7 126.3 173.3 109.7 189.2 104.3C205 99 221 105 236.8 112.8C252.7 120.7 268.3 130.3 284.2 141.8C300 153.3 316 166.7 331.8 166.2C347.7 165.7 363.3 151.3 379 135.5C394.7 119.7 410.3 102.3 426.2 109.7C442 117 458 149 473.8 163.5C489.7 178 505.3 175 521 167C536.7 159 552.3 146 568.2 132.3C584 118.7 600 104.3 615.8 100.7C631.7 97 647.3 104 663.2 117.7C679 131.3 695 151.7 710.8 153.3C726.7 155 742.3 138 758 123.5C773.7 109 789.3 97 805.2 108.8C821 120.7 837 156.3 852.8 167.8C868.7 179.3 884.3 166.7 892.2 160.3L900 154L900 251L892.2 251C884.3 251 868.7 251 852.8 251C837 251 821 251 805.2 251C789.3 251 773.7 251 758 251C742.3 251 726.7 251 710.8 251C695 251 679 251 663.2 251C647.3 251 631.7 251 615.8 251C600 251 584 251 568.2 251C552.3 251 536.7 251 521 251C505.3 251 489.7 251 473.8 251C458 251 442 251 426.2 251C410.3 251 394.7 251 379 251C363.3 251 347.7 251 331.8 251C316 251 300 251 284.2 251C268.3 251 252.7 251 236.8 251C221 251 205 251 189.2 251C173.3 251 157.7 251 142 251C126.3 251 110.7 251 94.8 251C79 251 63 251 47.2 251C31.3 251 15.7 251 7.8 251L0 251Z" fill="#eb400a"></path><path d="M0 106L7.8 106.8C15.7 107.7 31.3 109.3 47.2 123.3C63 137.3 79 163.7 94.8 174.7C110.7 185.7 126.3 181.3 142 170.3C157.7 159.3 173.3 141.7 189.2 137.7C205 133.7 221 143.3 236.8 148.7C252.7 154 268.3 155 284.2 149.8C300 144.7 316 133.3 331.8 125.5C347.7 117.7 363.3 113.3 379 110.3C394.7 107.3 410.3 105.7 426.2 113.5C442 121.3 458 138.7 473.8 142.3C489.7 146 505.3 136 521 128C536.7 120 552.3 114 568.2 110.2C584 106.3 600 104.7 615.8 117.7C631.7 130.7 647.3 158.3 663.2 166.2C679 174 695 162 710.8 155.5C726.7 149 742.3 148 758 143.3C773.7 138.7 789.3 130.3 805.2 122C821 113.7 837 105.3 852.8 107.7C868.7 110 884.3 123 892.2 129.5L900 136L900 251L892.2 251C884.3 251 868.7 251 852.8 251C837 251 821 251 805.2 251C789.3 251 773.7 251 758 251C742.3 251 726.7 251 710.8 251C695 251 679 251 663.2 251C647.3 251 631.7 251 615.8 251C600 251 584 251 568.2 251C552.3 251 536.7 251 521 251C505.3 251 489.7 251 473.8 251C458 251 442 251 426.2 251C410.3 251 394.7 251 379 251C363.3 251 347.7 251 331.8 251C316 251 300 251 284.2 251C268.3 251 252.7 251 236.8 251C221 251 205 251 189.2 251C173.3 251 157.7 251 142 251C126.3 251 110.7 251 94.8 251C79 251 63 251 47.2 251C31.3 251 15.7 251 7.8 251L0 251Z" fill="#eb3321"></path><path d="M0 117L7.8 121.3C15.7 125.7 31.3 134.3 47.2 133C63 131.7 79 120.3 94.8 129.7C110.7 139 126.3 169 142 170.5C157.7 172 173.3 145 189.2 141.5C205 138 221 158 236.8 166C252.7 174 268.3 170 284.2 173.8C300 177.7 316 189.3 331.8 190C347.7 190.7 363.3 180.3 379 176.2C394.7 172 410.3 174 426.2 170.7C442 167.3 458 158.7 473.8 150.7C489.7 142.7 505.3 135.3 521 139C536.7 142.7 552.3 157.3 568.2 167.3C584 177.3 600 182.7 615.8 184.8C631.7 187 647.3 186 663.2 173.8C679 161.7 695 138.3 710.8 134.7C726.7 131 742.3 147 758 149C773.7 151 789.3 139 805.2 134.7C821 130.3 837 133.7 852.8 136C868.7 138.3 884.3 139.7 892.2 140.3L900 141L900 251L892.2 251C884.3 251 868.7 251 852.8 251C837 251 821 251 805.2 251C789.3 251 773.7 251 758 251C742.3 251 726.7 251 710.8 251C695 251 679 251 663.2 251C647.3 251 631.7 251 615.8 251C600 251 584 251 568.2 251C552.3 251 536.7 251 521 251C505.3 251 489.7 251 473.8 251C458 251 442 251 426.2 251C410.3 251 394.7 251 379 251C363.3 251 347.7 251 331.8 251C316 251 300 251 284.2 251C268.3 251 252.7 251 236.8 251C221 251 205 251 189.2 251C173.3 251 157.7 251 142 251C126.3 251 110.7 251 94.8 251C79 251 63 251 47.2 251C31.3 251 15.7 251 7.8 251L0 251Z" fill="#ea2630"></path><path d="M0 159L7.8 156.7C15.7 154.3 31.3 149.7 47.2 148.7C63 147.7 79 150.3 94.8 151C110.7 151.7 126.3 150.3 142 148.5C157.7 146.7 173.3 144.3 189.2 143.5C205 142.7 221 143.3 236.8 147.2C252.7 151 268.3 158 284.2 160.7C300 163.3 316 161.7 331.8 162.7C347.7 163.7 363.3 167.3 379 174.2C394.7 181 410.3 191 426.2 184.3C442 177.7 458 154.3 473.8 153C489.7 151.7 505.3 172.3 521 171.3C536.7 170.3 552.3 147.7 568.2 139.5C584 131.3 600 137.7 615.8 138.3C631.7 139 647.3 134 663.2 132.8C679 131.7 695 134.3 710.8 137C726.7 139.7 742.3 142.3 758 148.8C773.7 155.3 789.3 165.7 805.2 170.7C821 175.7 837 175.3 852.8 173.7C868.7 172 884.3 169 892.2 167.5L900 166L900 251L892.2 251C884.3 251 868.7 251 852.8 251C837 251 821 251 805.2 251C789.3 251 773.7 251 758 251C742.3 251 726.7 251 710.8 251C695 251 679 251 663.2 251C647.3 251 631.7 251 615.8 251C600 251 584 251 568.2 251C552.3 251 536.7 251 521 251C505.3 251 489.7 251 473.8 251C458 251 442 251 426.2 251C410.3 251 394.7 251 379 251C363.3 251 347.7 251 331.8 251C316 251 300 251 284.2 251C268.3 251 252.7 251 236.8 251C221 251 205 251 189.2 251C173.3 251 157.7 251 142 251C126.3 251 110.7 251 94.8 251C79 251 63 251 47.2 251C31.3 251 15.7 251 7.8 251L0 251Z" fill="#e7193d"></path><path d="M0 165L7.8 167.5C15.7 170 31.3 175 47.2 170.3C63 165.7 79 151.3 94.8 147C110.7 142.7 126.3 148.3 142 158.8C157.7 169.3 173.3 184.7 189.2 184.7C205 184.7 221 169.3 236.8 169C252.7 168.7 268.3 183.3 284.2 180.8C300 178.3 316 158.7 331.8 157.5C347.7 156.3 363.3 173.7 379 184C394.7 194.3 410.3 197.7 426.2 198.5C442 199.3 458 197.7 473.8 199C489.7 200.3 505.3 204.7 521 207C536.7 209.3 552.3 209.7 568.2 206.7C584 203.7 600 197.3 615.8 192C631.7 186.7 647.3 182.3 663.2 177.2C679 172 695 166 710.8 166.8C726.7 167.7 742.3 175.3 758 178.7C773.7 182 789.3 181 805.2 177.7C821 174.3 837 168.7 852.8 167.5C868.7 166.3 884.3 169.7 892.2 171.3L900 173L900 251L892.2 251C884.3 251 868.7 251 852.8 251C837 251 821 251 805.2 251C789.3 251 773.7 251 758 251C742.3 251 726.7 251 710.8 251C695 251 679 251 663.2 251C647.3 251 631.7 251 615.8 251C600 251 584 251 568.2 251C552.3 251 536.7 251 521 251C505.3 251 489.7 251 473.8 251C458 251 442 251 426.2 251C410.3 251 394.7 251 379 251C363.3 251 347.7 251 331.8 251C316 251 300 251 284.2 251C268.3 251 252.7 251 236.8 251C221 251 205 251 189.2 251C173.3 251 157.7 251 142 251C126.3 251 110.7 251 94.8 251C79 251 63 251 47.2 251C31.3 251 15.7 251 7.8 251L0 251Z" fill="#e20a49"></path><path d="M0 197L7.8 196.2C15.7 195.3 31.3 193.7 47.2 196.3C63 199 79 206 94.8 204.8C110.7 203.7 126.3 194.3 142 190.3C157.7 186.3 173.3 187.7 189.2 183.7C205 179.7 221 170.3 236.8 171.2C252.7 172 268.3 183 284.2 183C300 183 316 172 331.8 174.5C347.7 177 363.3 193 379 194.7C394.7 196.3 410.3 183.7 426.2 183.5C442 183.3 458 195.7 473.8 200.5C489.7 205.3 505.3 202.7 521 196.2C536.7 189.7 552.3 179.3 568.2 178C584 176.7 600 184.3 615.8 182.7C631.7 181 647.3 170 663.2 166.8C679 163.7 695 168.3 710.8 174.2C726.7 180 742.3 187 758 190.7C773.7 194.3 789.3 194.7 805.2 190C821 185.3 837 175.7 852.8 170.7C868.7 165.7 884.3 165.3 892.2 165.2L900 165L900 251L892.2 251C884.3 251 868.7 251 852.8 251C837 251 821 251 805.2 251C789.3 251 773.7 251 758 251C742.3 251 726.7 251 710.8 251C695 251 679 251 663.2 251C647.3 251 631.7 251 615.8 251C600 251 584 251 568.2 251C552.3 251 536.7 251 521 251C505.3 251 489.7 251 473.8 251C458 251 442 251 426.2 251C410.3 251 394.7 251 379 251C363.3 251 347.7 251 331.8 251C316 251 300 251 284.2 251C268.3 251 252.7 251 236.8 251C221 251 205 251 189.2 251C173.3 251 157.7 251 142 251C126.3 251 110.7 251 94.8 251C79 251 63 251 47.2 251C31.3 251 15.7 251 7.8 251L0 251Z" fill="#dc0054"></path><path d="M0 175L7.8 177.3C15.7 179.7 31.3 184.3 47.2 190.8C63 197.3 79 205.7 94.8 203.2C110.7 200.7 126.3 187.3 142 187C157.7 186.7 173.3 199.3 189.2 206.8C205 214.3 221 216.7 236.8 216.2C252.7 215.7 268.3 212.3 284.2 205.2C300 198 316 187 331.8 181.2C347.7 175.3 363.3 174.7 379 173.3C394.7 172 410.3 170 426.2 170.7C442 171.3 458 174.7 473.8 181.7C489.7 188.7 505.3 199.3 521 197.5C536.7 195.7 552.3 181.3 568.2 178.7C584 176 600 185 615.8 193.7C631.7 202.3 647.3 210.7 663.2 208.3C679 206 695 193 710.8 191.7C726.7 190.3 742.3 200.7 758 202C773.7 203.3 789.3 195.7 805.2 194.8C821 194 837 200 852.8 201.7C868.7 203.3 884.3 200.7 892.2 199.3L900 198L900 251L892.2 251C884.3 251 868.7 251 852.8 251C837 251 821 251 805.2 251C789.3 251 773.7 251 758 251C742.3 251 726.7 251 710.8 251C695 251 679 251 663.2 251C647.3 251 631.7 251 615.8 251C600 251 584 251 568.2 251C552.3 251 536.7 251 521 251C505.3 251 489.7 251 473.8 251C458 251 442 251 426.2 251C410.3 251 394.7 251 379 251C363.3 251 347.7 251 331.8 251C316 251 300 251 284.2 251C268.3 251 252.7 251 236.8 251C221 251 205 251 189.2 251C173.3 251 157.7 251 142 251C126.3 251 110.7 251 94.8 251C79 251 63 251 47.2 251C31.3 251 15.7 251 7.8 251L0 251Z" fill="#d4005e"></path><path d="M0 220L7.8 214.7C15.7 209.3 31.3 198.7 47.2 196.2C63 193.7 79 199.3 94.8 203.8C110.7 208.3 126.3 211.7 142 210.5C157.7 209.3 173.3 203.7 189.2 200.8C205 198 221 198 236.8 199.3C252.7 200.7 268.3 203.3 284.2 207.2C300 211 316 216 331.8 216.5C347.7 217 363.3 213 379 207.5C394.7 202 410.3 195 426.2 196.7C442 198.3 458 208.7 473.8 211.8C489.7 215 505.3 211 521 211.5C536.7 212 552.3 217 568.2 213.2C584 209.3 600 196.7 615.8 192C631.7 187.3 647.3 190.7 663.2 193.2C679 195.7 695 197.3 710.8 200C726.7 202.7 742.3 206.3 758 208.8C773.7 211.3 789.3 212.7 805.2 208.8C821 205 837 196 852.8 193.7C868.7 191.3 884.3 195.7 892.2 197.8L900 200L900 251L892.2 251C884.3 251 868.7 251 852.8 251C837 251 821 251 805.2 251C789.3 251 773.7 251 758 251C742.3 251 726.7 251 710.8 251C695 251 679 251 663.2 251C647.3 251 631.7 251 615.8 251C600 251 584 251 568.2 251C552.3 251 536.7 251 521 251C505.3 251 489.7 251 473.8 251C458 251 442 251 426.2 251C410.3 251 394.7 251 379 251C363.3 251 347.7 251 331.8 251C316 251 300 251 284.2 251C268.3 251 252.7 251 236.8 251C221 251 205 251 189.2 251C173.3 251 157.7 251 142 251C126.3 251 110.7 251 94.8 251C79 251 63 251 47.2 251C31.3 251 15.7 251 7.8 251L0 251Z" fill="#cb0068"></path><path d="M0 225L7.8 224C15.7 223 31.3 221 47.2 216.7C63 212.3 79 205.7 94.8 202.7C110.7 199.7 126.3 200.3 142 201.5C157.7 202.7 173.3 204.3 189.2 208.2C205 212 221 218 236.8 221.7C252.7 225.3 268.3 226.7 284.2 223.5C300 220.3 316 212.7 331.8 207.2C347.7 201.7 363.3 198.3 379 196.3C394.7 194.3 410.3 193.7 426.2 199.3C442 205 458 217 473.8 222C489.7 227 505.3 225 521 224.2C536.7 223.3 552.3 223.7 568.2 221C584 218.3 600 212.7 615.8 211.8C631.7 211 647.3 215 663.2 216C679 217 695 215 710.8 211.7C726.7 208.3 742.3 203.7 758 205.8C773.7 208 789.3 217 805.2 217.3C821 217.7 837 209.3 852.8 209.2C868.7 209 884.3 217 892.2 221L900 225L900 251L892.2 251C884.3 251 868.7 251 852.8 251C837 251 821 251 805.2 251C789.3 251 773.7 251 758 251C742.3 251 726.7 251 710.8 251C695 251 679 251 663.2 251C647.3 251 631.7 251 615.8 251C600 251 584 251 568.2 251C552.3 251 536.7 251 521 251C505.3 251 489.7 251 473.8 251C458 251 442 251 426.2 251C410.3 251 394.7 251 379 251C363.3 251 347.7 251 331.8 251C316 251 300 251 284.2 251C268.3 251 252.7 251 236.8 251C221 251 205 251 189.2 251C173.3 251 157.7 251 142 251C126.3 251 110.7 251 94.8 251C79 251 63 251 47.2 251C31.3 251 15.7 251 7.8 251L0 251Z" fill="#c00071"></path><path d="M0 208L7.8 208.3C15.7 208.7 31.3 209.3 47.2 213.5C63 217.7 79 225.3 94.8 229.2C110.7 233 126.3 233 142 229.5C157.7 226 173.3 219 189.2 218.7C205 218.3 221 224.7 236.8 228.5C252.7 232.3 268.3 233.7 284.2 233.3C300 233 316 231 331.8 227.7C347.7 224.3 363.3 219.7 379 219.2C394.7 218.7 410.3 222.3 426.2 224.8C442 227.3 458 228.7 473.8 228.3C489.7 228 505.3 226 521 222.5C536.7 219 552.3 214 568.2 213.5C584 213 600 217 615.8 217C631.7 217 647.3 213 663.2 215C679 217 695 225 710.8 227C726.7 229 742.3 225 758 225C773.7 225 789.3 229 805.2 229C821 229 837 225 852.8 223.2C868.7 221.3 884.3 221.7 892.2 221.8L900 222L900 251L892.2 251C884.3 251 868.7 251 852.8 251C837 251 821 251 805.2 251C789.3 251 773.7 251 758 251C742.3 251 726.7 251 710.8 251C695 251 679 251 663.2 251C647.3 251 631.7 251 615.8 251C600 251 584 251 568.2 251C552.3 251 536.7 251 521 251C505.3 251 489.7 251 473.8 251C458 251 442 251 426.2 251C410.3 251 394.7 251 379 251C363.3 251 347.7 251 331.8 251C316 251 300 251 284.2 251C268.3 251 252.7 251 236.8 251C221 251 205 251 189.2 251C173.3 251 157.7 251 142 251C126.3 251 110.7 251 94.8 251C79 251 63 251 47.2 251C31.3 251 15.7 251 7.8 251L0 251Z" fill="#b4007a"></path><path d="M0 225L7.8 224.7C15.7 224.3 31.3 223.7 47.2 224.7C63 225.7 79 228.3 94.8 230.3C110.7 232.3 126.3 233.7 142 234.3C157.7 235 173.3 235 189.2 232.8C205 230.7 221 226.3 236.8 226C252.7 225.7 268.3 229.3 284.2 231.2C300 233 316 233 331.8 232.3C347.7 231.7 363.3 230.3 379 229.3C394.7 228.3 410.3 227.7 426.2 227.3C442 227 458 227 473.8 228.3C489.7 229.7 505.3 232.3 521 232.8C536.7 233.3 552.3 231.7 568.2 230.3C584 229 600 228 615.8 228.7C631.7 229.3 647.3 231.7 663.2 231.7C679 231.7 695 229.3 710.8 227.3C726.7 225.3 742.3 223.7 758 223C773.7 222.3 789.3 222.7 805.2 224.5C821 226.3 837 229.7 852.8 230C868.7 230.3 884.3 227.7 892.2 226.3L900 225L900 251L892.2 251C884.3 251 868.7 251 852.8 251C837 251 821 251 805.2 251C789.3 251 773.7 251 758 251C742.3 251 726.7 251 710.8 251C695 251 679 251 663.2 251C647.3 251 631.7 251 615.8 251C600 251 584 251 568.2 251C552.3 251 536.7 251 521 251C505.3 251 489.7 251 473.8 251C458 251 442 251 426.2 251C410.3 251 394.7 251 379 251C363.3 251 347.7 251 331.8 251C316 251 300 251 284.2 251C268.3 251 252.7 251 236.8 251C221 251 205 251 189.2 251C173.3 251 157.7 251 142 251C126.3 251 110.7 251 94.8 251C79 251 63 251 47.2 251C31.3 251 15.7 251 7.8 251L0 251Z" fill="#a60d81"></path></svg>