<svg id="visual" viewBox="0 0 900 250" width="900" height="250" xmlns="http://www.w3.org/2000/svg" xmlns:xlink="http://www.w3.org/1999/xlink" version="1.1"><path d="M0 117L21.5 120.5C43 124 86 131 128.8 123.5C171.7 116 214.3 94 257.2 87C300 80 343 88 385.8 88.2C428.7 88.3 471.3 80.7 514.2 92.8C557 105 600 137 642.8 156.3C685.7 175.7 728.3 182.3 771.2 165.2C814 148 857 107 878.5 86.5L900 66L900 0L878.5 0C857 0 814 0 771.2 0C728.3 0 685.7 0 642.8 0C600 0 557 0 514.2 0C471.3 0 428.7 0 385.8 0C343 0 300 0 257.2 0C214.3 0 171.7 0 128.8 0C86 0 43 0 21.5 0L0 0Z" fill="#eb400a"></path><path d="M0 167L21.5 165.3C43 163.7 86 160.3 128.8 140.2C171.7 120 214.3 83 257.2 78.2C300 73.3 343 100.7 385.8 118.8C428.7 137 471.3 146 514.2 141.3C557 136.7 600 118.3 642.8 107.5C685.7 96.7 728.3 93.3 771.2 102.3C814 111.3 857 132.7 878.5 143.3L900 154L900 0L878.5 0C857 0 814 0 771.2 0C728.3 0 685.7 0 642.8 0C600 0 557 0 514.2 0C471.3 0 428.7 0 385.8 0C343 0 300 0 257.2 0C214.3 0 171.7 0 128.8 0C86 0 43 0 21.5 0L0 0Z" fill="#eb2e28"></path><path d="M0 18L21.5 27.7C43 37.3 86 56.7 128.8 67.5C171.7 78.3 214.3 80.7 257.2 88.2C300 95.7 343 108.3 385.8 109.7C428.7 111 471.3 101 514.2 87.2C557 73.3 600 55.7 642.8 59.5C685.7 63.3 728.3 88.7 771.2 100.8C814 113 857 112 878.5 111.5L900 111L900 0L878.5 0C857 0 814 0 771.2 0C728.3 0 685.7 0 642.8 0C600 0 557 0 514.2 0C471.3 0 428.7 0 385.8 0C343 0 300 0 257.2 0C214.3 0 171.7 0 128.8 0C86 0 43 0 21.5 0L0 0Z" fill="#e71a3c"></path><path d="M0 109L21.5 96C43 83 86 57 128.8 47.7C171.7 38.3 214.3 45.7 257.2 46.5C300 47.3 343 41.7 385.8 49.2C428.7 56.7 471.3 77.3 514.2 79.5C557 81.7 600 65.3 642.8 62C685.7 58.7 728.3 68.3 771.2 74.2C814 80 857 82 878.5 83L900 84L900 0L878.5 0C857 0 814 0 771.2 0C728.3 0 685.7 0 642.8 0C600 0 557 0 514.2 0C471.3 0 428.7 0 385.8 0C343 0 300 0 257.2 0C214.3 0 171.7 0 128.8 0C86 0 43 0 21.5 0L0 0Z" fill="#e0064c"></path><path d="M0 55L21.5 52.3C43 49.7 86 44.3 128.8 40.3C171.7 36.3 214.3 33.7 257.2 40C300 46.3 343 61.7 385.8 70C428.7 78.3 471.3 79.7 514.2 69.7C557 59.7 600 38.3 642.8 37.7C685.7 37 728.3 57 771.2 58.7C814 60.3 857 43.7 878.5 35.3L900 27L900 0L878.5 0C857 0 814 0 771.2 0C728.3 0 685.7 0 642.8 0C600 0 557 0 514.2 0C471.3 0 428.7 0 385.8 0C343 0 300 0 257.2 0C214.3 0 171.7 0 128.8 0C86 0 43 0 21.5 0L0 0Z" fill="#d7005b"></path><path d="M0 21L21.5 28C43 35 86 49 128.8 46.8C171.7 44.7 214.3 26.3 257.2 22.8C300 19.3 343 30.7 385.8 38.5C428.7 46.3 471.3 50.7 514.2 57.2C557 63.7 600 72.3 642.8 69.3C685.7 66.3 728.3 51.7 771.2 39.3C814 27 857 17 878.5 12L900 7L900 0L878.5 0C857 0 814 0 771.2 0C728.3 0 685.7 0 642.8 0C600 0 557 0 514.2 0C471.3 0 428.7 0 385.8 0C343 0 300 0 257.2 0C214.3 0 171.7 0 128.8 0C86 0 43 0 21.5 0L0 0Z" fill="#ca006a"></path><path d="M0 22L21.5 24.7C43 27.3 86 32.7 128.8 31.7C171.7 30.7 214.3 23.3 257.2 21.7C300 20 343 24 385.8 22.2C428.7 20.3 471.3 12.7 514.2 14.7C557 16.7 600 28.3 642.8 36.8C685.7 45.3 728.3 50.7 771.2 49C814 47.3 857 38.7 878.5 34.3L900 30L900 0L878.5 0C857 0 814 0 771.2 0C728.3 0 685.7 0 642.8 0C600 0 557 0 514.2 0C471.3 0 428.7 0 385.8 0C343 0 300 0 257.2 0C214.3 0 171.7 0 128.8 0C86 0 43 0 21.5 0L0 0Z" fill="#b90076"></path><path d="M0 40L21.5 33.8C43 27.7 86 15.3 128.8 11C171.7 6.7 214.3 10.3 257.2 12.3C300 14.3 343 14.7 385.8 15.2C428.7 15.7 471.3 16.3 514.2 17.2C557 18 600 19 642.8 20.3C685.7 21.7 728.3 23.3 771.2 20.3C814 17.3 857 9.7 878.5 5.8L900 2L900 0L878.5 0C857 0 814 0 771.2 0C728.3 0 685.7 0 642.8 0C600 0 557 0 514.2 0C471.3 0 428.7 0 385.8 0C343 0 300 0 257.2 0C214.3 0 171.7 0 128.8 0C86 0 43 0 21.5 0L0 0Z" fill="#a60d81"></path></svg>