<svg id="visual" viewBox="0 0 900 600" width="900" height="600" xmlns="http://www.w3.org/2000/svg" xmlns:xlink="http://www.w3.org/1999/xlink" version="1.1"><rect x="0" y="0" width="900" height="600" fill="#001220"></rect><path d="M0 485L10.7 483C21.3 481 42.7 477 64.2 473C85.7 469 107.3 465 128.8 466C150.3 467 171.7 473 193 472.2C214.3 471.3 235.7 463.7 257 462C278.3 460.3 299.7 464.7 321.2 467.8C342.7 471 364.3 473 385.8 474.2C407.3 475.3 428.7 475.7 450 471.8C471.3 468 492.7 460 514.2 461.3C535.7 462.7 557.3 473.3 578.8 474C600.3 474.7 621.7 465.3 643 466.5C664.3 467.7 685.7 479.3 707 483.2C728.3 487 749.7 483 771.2 478.2C792.7 473.3 814.3 467.7 835.8 463.2C857.3 458.7 878.7 455.3 889.3 453.7L900 452L900 601L889.3 601C878.7 601 857.3 601 835.8 601C814.3 601 792.7 601 771.2 601C749.7 601 728.3 601 707 601C685.7 601 664.3 601 643 601C621.7 601 600.3 601 578.8 601C557.3 601 535.7 601 514.2 601C492.7 601 471.3 601 450 601C428.7 601 407.3 601 385.8 601C364.3 601 342.7 601 321.2 601C299.7 601 278.3 601 257 601C235.7 601 214.3 601 193 601C171.7 601 150.3 601 128.8 601C107.3 601 85.7 601 64.2 601C42.7 601 21.3 601 10.7 601L0 601Z" fill="#eb400a"></path><path d="M0 476L10.7 479.5C21.3 483 42.7 490 64.2 493.3C85.7 496.7 107.3 496.3 128.8 496.7C150.3 497 171.7 498 193 498.2C214.3 498.3 235.7 497.7 257 491.8C278.3 486 299.7 475 321.2 470.2C342.7 465.3 364.3 466.7 385.8 467C407.3 467.3 428.7 466.7 450 471.7C471.3 476.7 492.7 487.3 514.2 495.3C535.7 503.3 557.3 508.7 578.8 505.2C600.3 501.7 621.7 489.3 643 487.7C664.3 486 685.7 495 707 498C728.3 501 749.7 498 771.2 495C792.7 492 814.3 489 835.8 484.5C857.3 480 878.7 474 889.3 471L900 468L900 601L889.3 601C878.7 601 857.3 601 835.8 601C814.3 601 792.7 601 771.2 601C749.7 601 728.3 601 707 601C685.7 601 664.3 601 643 601C621.7 601 600.3 601 578.8 601C557.3 601 535.7 601 514.2 601C492.7 601 471.3 601 450 601C428.7 601 407.3 601 385.8 601C364.3 601 342.7 601 321.2 601C299.7 601 278.3 601 257 601C235.7 601 214.3 601 193 601C171.7 601 150.3 601 128.8 601C107.3 601 85.7 601 64.2 601C42.7 601 21.3 601 10.7 601L0 601Z" fill="#f23226"></path><path d="M0 513L10.7 511.5C21.3 510 42.7 507 64.2 504.2C85.7 501.3 107.3 498.7 128.8 501.8C150.3 505 171.7 514 193 516.3C214.3 518.7 235.7 514.3 257 509C278.3 503.7 299.7 497.3 321.2 499C342.7 500.7 364.3 510.3 385.8 515.5C407.3 520.7 428.7 521.3 450 518C471.3 514.7 492.7 507.3 514.2 502.2C535.7 497 557.3 494 578.8 492.3C600.3 490.7 621.7 490.3 643 489.5C664.3 488.7 685.7 487.3 707 491.3C728.3 495.3 749.7 504.7 771.2 505.3C792.7 506 814.3 498 835.8 495.7C857.3 493.3 878.7 496.7 889.3 498.3L900 500L900 601L889.3 601C878.7 601 857.3 601 835.8 601C814.3 601 792.7 601 771.2 601C749.7 601 728.3 601 707 601C685.7 601 664.3 601 643 601C621.7 601 600.3 601 578.8 601C557.3 601 535.7 601 514.2 601C492.7 601 471.3 601 450 601C428.7 601 407.3 601 385.8 601C364.3 601 342.7 601 321.2 601C299.7 601 278.3 601 257 601C235.7 601 214.3 601 193 601C171.7 601 150.3 601 128.8 601C107.3 601 85.7 601 64.2 601C42.7 601 21.3 601 10.7 601L0 601Z" fill="#f7213a"></path><path d="M0 503L10.7 507C21.3 511 42.7 519 64.2 520C85.7 521 107.3 515 128.8 517C150.3 519 171.7 529 193 530C214.3 531 235.7 523 257 521C278.3 519 299.7 523 321.2 522.2C342.7 521.3 364.3 515.7 385.8 516.5C407.3 517.3 428.7 524.7 450 524.2C471.3 523.7 492.7 515.3 514.2 511.5C535.7 507.7 557.3 508.3 578.8 507C600.3 505.7 621.7 502.3 643 504.7C664.3 507 685.7 515 707 518.8C728.3 522.7 749.7 522.3 771.2 519.5C792.7 516.7 814.3 511.3 835.8 514C857.3 516.7 878.7 527.3 889.3 532.7L900 538L900 601L889.3 601C878.7 601 857.3 601 835.8 601C814.3 601 792.7 601 771.2 601C749.7 601 728.3 601 707 601C685.7 601 664.3 601 643 601C621.7 601 600.3 601 578.8 601C557.3 601 535.7 601 514.2 601C492.7 601 471.3 601 450 601C428.7 601 407.3 601 385.8 601C364.3 601 342.7 601 321.2 601C299.7 601 278.3 601 257 601C235.7 601 214.3 601 193 601C171.7 601 150.3 601 128.8 601C107.3 601 85.7 601 64.2 601C42.7 601 21.3 601 10.7 601L0 601Z" fill="#fa0d4d"></path><path d="M0 524L10.7 525.5C21.3 527 42.7 530 64.2 531.2C85.7 532.3 107.3 531.7 128.8 533.7C150.3 535.7 171.7 540.3 193 542.8C214.3 545.3 235.7 545.7 257 544.5C278.3 543.3 299.7 540.7 321.2 540.5C342.7 540.3 364.3 542.7 385.8 541C407.3 539.3 428.7 533.7 450 533.3C471.3 533 492.7 538 514.2 537.7C535.7 537.3 557.3 531.7 578.8 532.8C600.3 534 621.7 542 643 540.5C664.3 539 685.7 528 707 527.7C728.3 527.3 749.7 537.7 771.2 542.2C792.7 546.7 814.3 545.3 835.8 542.3C857.3 539.3 878.7 534.7 889.3 532.3L900 530L900 601L889.3 601C878.7 601 857.3 601 835.8 601C814.3 601 792.7 601 771.2 601C749.7 601 728.3 601 707 601C685.7 601 664.3 601 643 601C621.7 601 600.3 601 578.8 601C557.3 601 535.7 601 514.2 601C492.7 601 471.3 601 450 601C428.7 601 407.3 601 385.8 601C364.3 601 342.7 601 321.2 601C299.7 601 278.3 601 257 601C235.7 601 214.3 601 193 601C171.7 601 150.3 601 128.8 601C107.3 601 85.7 601 64.2 601C42.7 601 21.3 601 10.7 601L0 601Z" fill="#fa005f"></path><path d="M0 558L10.7 555.2C21.3 552.3 42.7 546.7 64.2 547.5C85.7 548.3 107.3 555.7 128.8 555.2C150.3 554.7 171.7 546.3 193 545.8C214.3 545.3 235.7 552.7 257 555.8C278.3 559 299.7 558 321.2 556.7C342.7 555.3 364.3 553.7 385.8 550.8C407.3 548 428.7 544 450 541.3C471.3 538.7 492.7 537.3 514.2 537.2C535.7 537 557.3 538 578.8 541.5C600.3 545 621.7 551 643 554C664.3 557 685.7 557 707 553.5C728.3 550 749.7 543 771.2 540.8C792.7 538.7 814.3 541.3 835.8 542.5C857.3 543.7 878.7 543.3 889.3 543.2L900 543L900 601L889.3 601C878.7 601 857.3 601 835.8 601C814.3 601 792.7 601 771.2 601C749.7 601 728.3 601 707 601C685.7 601 664.3 601 643 601C621.7 601 600.3 601 578.8 601C557.3 601 535.7 601 514.2 601C492.7 601 471.3 601 450 601C428.7 601 407.3 601 385.8 601C364.3 601 342.7 601 321.2 601C299.7 601 278.3 601 257 601C235.7 601 214.3 601 193 601C171.7 601 150.3 601 128.8 601C107.3 601 85.7 601 64.2 601C42.7 601 21.3 601 10.7 601L0 601Z" fill="#f80071"></path><path d="M0 573L10.7 572C21.3 571 42.7 569 64.2 566.3C85.7 563.7 107.3 560.3 128.8 561.8C150.3 563.3 171.7 569.7 193 570.8C214.3 572 235.7 568 257 565.7C278.3 563.3 299.7 562.7 321.2 560.7C342.7 558.7 364.3 555.3 385.8 555.5C407.3 555.7 428.7 559.3 450 559.3C471.3 559.3 492.7 555.7 514.2 556.5C535.7 557.3 557.3 562.7 578.8 566.5C600.3 570.3 621.7 572.7 643 570.5C664.3 568.3 685.7 561.7 707 558.7C728.3 555.7 749.7 556.3 771.2 558.2C792.7 560 814.3 563 835.8 563.3C857.3 563.7 878.7 561.3 889.3 560.2L900 559L900 601L889.3 601C878.7 601 857.3 601 835.8 601C814.3 601 792.7 601 771.2 601C749.7 601 728.3 601 707 601C685.7 601 664.3 601 643 601C621.7 601 600.3 601 578.8 601C557.3 601 535.7 601 514.2 601C492.7 601 471.3 601 450 601C428.7 601 407.3 601 385.8 601C364.3 601 342.7 601 321.2 601C299.7 601 278.3 601 257 601C235.7 601 214.3 601 193 601C171.7 601 150.3 601 128.8 601C107.3 601 85.7 601 64.2 601C42.7 601 21.3 601 10.7 601L0 601Z" fill="#f30083"></path><path d="M0 572L10.7 574.2C21.3 576.3 42.7 580.7 64.2 580.2C85.7 579.7 107.3 574.3 128.8 571.8C150.3 569.3 171.7 569.7 193 572.8C214.3 576 235.7 582 257 583.3C278.3 584.7 299.7 581.3 321.2 579.2C342.7 577 364.3 576 385.8 577.2C407.3 578.3 428.7 581.7 450 583.5C471.3 585.3 492.7 585.7 514.2 585.5C535.7 585.3 557.3 584.7 578.8 582.2C600.3 579.7 621.7 575.3 643 574.2C664.3 573 685.7 575 707 576.7C728.3 578.3 749.7 579.7 771.2 579C792.7 578.3 814.3 575.7 835.8 575C857.3 574.3 878.7 575.7 889.3 576.3L900 577L900 601L889.3 601C878.7 601 857.3 601 835.8 601C814.3 601 792.7 601 771.2 601C749.7 601 728.3 601 707 601C685.7 601 664.3 601 643 601C621.7 601 600.3 601 578.8 601C557.3 601 535.7 601 514.2 601C492.7 601 471.3 601 450 601C428.7 601 407.3 601 385.8 601C364.3 601 342.7 601 321.2 601C299.7 601 278.3 601 257 601C235.7 601 214.3 601 193 601C171.7 601 150.3 601 128.8 601C107.3 601 85.7 601 64.2 601C42.7 601 21.3 601 10.7 601L0 601Z" fill="#eb0a95"></path></svg>