<svg id="visual" viewBox="0 0 450 900" width="450" height="900" xmlns="http://www.w3.org/2000/svg" xmlns:xlink="http://www.w3.org/1999/xlink" version="1.1"><path d="M0 86L10.7 88.2C21.3 90.3 42.7 94.7 64.2 85.8C85.7 77 107.3 55 128.8 57.7C150.3 60.3 171.7 87.7 193 96.3C214.3 105 235.7 95 257 97.8C278.3 100.7 299.7 116.3 321.2 114.7C342.7 113 364.3 94 385.8 97.5C407.3 101 428.7 127 439.3 140L450 153L450 0L439.3 0C428.7 0 407.3 0 385.8 0C364.3 0 342.7 0 321.2 0C299.7 0 278.3 0 257 0C235.7 0 214.3 0 193 0C171.7 0 150.3 0 128.8 0C107.3 0 85.7 0 64.2 0C42.7 0 21.3 0 10.7 0L0 0Z" fill="#eb400a"></path><path d="M0 135L10.7 140C21.3 145 42.7 155 64.2 151.3C85.7 147.7 107.3 130.3 128.8 124.5C150.3 118.7 171.7 124.3 193 128.7C214.3 133 235.7 136 257 140.7C278.3 145.3 299.7 151.7 321.2 154.7C342.7 157.7 364.3 157.3 385.8 148.7C407.3 140 428.7 123 439.3 114.5L450 106L450 0L439.3 0C428.7 0 407.3 0 385.8 0C364.3 0 342.7 0 321.2 0C299.7 0 278.3 0 257 0C235.7 0 214.3 0 193 0C171.7 0 150.3 0 128.8 0C107.3 0 85.7 0 64.2 0C42.7 0 21.3 0 10.7 0L0 0Z" fill="#ea2a2c"></path><path d="M0 110L10.7 121.3C21.3 132.7 42.7 155.3 64.2 164.3C85.7 173.3 107.3 168.7 128.8 145.8C150.3 123 171.7 82 193 86.3C214.3 90.7 235.7 140.3 257 137.7C278.3 135 299.7 80 321.2 55.8C342.7 31.7 364.3 38.3 385.8 48.3C407.3 58.3 428.7 71.7 439.3 78.3L450 85L450 0L439.3 0C428.7 0 407.3 0 385.8 0C364.3 0 342.7 0 321.2 0C299.7 0 278.3 0 257 0C235.7 0 214.3 0 193 0C171.7 0 150.3 0 128.8 0C107.3 0 85.7 0 64.2 0C42.7 0 21.3 0 10.7 0L0 0Z" fill="#e51441"></path><path d="M0 84L10.7 82.3C21.3 80.7 42.7 77.3 64.2 89.2C85.7 101 107.3 128 128.8 135C150.3 142 171.7 129 193 123.5C214.3 118 235.7 120 257 122.3C278.3 124.7 299.7 127.3 321.2 130.3C342.7 133.3 364.3 136.7 385.8 120.2C407.3 103.7 428.7 67.3 439.3 49.2L450 31L450 0L439.3 0C428.7 0 407.3 0 385.8 0C364.3 0 342.7 0 321.2 0C299.7 0 278.3 0 257 0C235.7 0 214.3 0 193 0C171.7 0 150.3 0 128.8 0C107.3 0 85.7 0 64.2 0C42.7 0 21.3 0 10.7 0L0 0Z" fill="#dc0054"></path><path d="M0 73L10.7 67.8C21.3 62.7 42.7 52.3 64.2 52.3C85.7 52.3 107.3 62.7 128.8 74.5C150.3 86.3 171.7 99.7 193 101.5C214.3 103.3 235.7 93.7 257 79C278.3 64.3 299.7 44.7 321.2 42.2C342.7 39.7 364.3 54.3 385.8 51.7C407.3 49 428.7 29 439.3 19L450 9L450 0L439.3 0C428.7 0 407.3 0 385.8 0C364.3 0 342.7 0 321.2 0C299.7 0 278.3 0 257 0C235.7 0 214.3 0 193 0C171.7 0 150.3 0 128.8 0C107.3 0 85.7 0 64.2 0C42.7 0 21.3 0 10.7 0L0 0Z" fill="#ce0065"></path><path d="M0 57L10.7 54.5C21.3 52 42.7 47 64.2 39.2C85.7 31.3 107.3 20.7 128.8 15.8C150.3 11 171.7 12 193 17.5C214.3 23 235.7 33 257 32.8C278.3 32.7 299.7 22.3 321.2 22.5C342.7 22.7 364.3 33.3 385.8 40.7C407.3 48 428.7 52 439.3 54L450 56L450 0L439.3 0C428.7 0 407.3 0 385.8 0C364.3 0 342.7 0 321.2 0C299.7 0 278.3 0 257 0C235.7 0 214.3 0 193 0C171.7 0 150.3 0 128.8 0C107.3 0 85.7 0 64.2 0C42.7 0 21.3 0 10.7 0L0 0Z" fill="#bc0074"></path><path d="M0 24L10.7 22.7C21.3 21.3 42.7 18.7 64.2 16C85.7 13.3 107.3 10.7 128.8 18.3C150.3 26 171.7 44 193 46.3C214.3 48.7 235.7 35.3 257 35.5C278.3 35.7 299.7 49.3 321.2 47.5C342.7 45.7 364.3 28.3 385.8 22.7C407.3 17 428.7 23 439.3 26L450 29L450 0L439.3 0C428.7 0 407.3 0 385.8 0C364.3 0 342.7 0 321.2 0C299.7 0 278.3 0 257 0C235.7 0 214.3 0 193 0C171.7 0 150.3 0 128.8 0C107.3 0 85.7 0 64.2 0C42.7 0 21.3 0 10.7 0L0 0Z" fill="#a60d81"></path></svg>