<svg id="visual" viewBox="0 0 900 600" width="900" height="600" xmlns="http://www.w3.org/2000/svg" xmlns:xlink="http://www.w3.org/1999/xlink" version="1.1"><rect x="0" y="0" width="900" height="600" fill="#001220"></rect><path d="M0 113L10.7 112.3C21.3 111.7 42.7 110.3 64.2 112C85.7 113.7 107.3 118.3 128.8 119.7C150.3 121 171.7 119 193 120.8C214.3 122.7 235.7 128.3 257 127.3C278.3 126.3 299.7 118.7 321.2 121.2C342.7 123.7 364.3 136.3 385.8 135.3C407.3 134.3 428.7 119.7 450 115.2C471.3 110.7 492.7 116.3 514.2 120.2C535.7 124 557.3 126 578.8 125C600.3 124 621.7 120 643 115.5C664.3 111 685.7 106 707 106.3C728.3 106.7 749.7 112.3 771.2 114.2C792.7 116 814.3 114 835.8 112C857.3 110 878.7 108 889.3 107L900 106L900 0L889.3 0C878.7 0 857.3 0 835.8 0C814.3 0 792.7 0 771.2 0C749.7 0 728.3 0 707 0C685.7 0 664.3 0 643 0C621.7 0 600.3 0 578.8 0C557.3 0 535.7 0 514.2 0C492.7 0 471.3 0 450 0C428.7 0 407.3 0 385.8 0C364.3 0 342.7 0 321.2 0C299.7 0 278.3 0 257 0C235.7 0 214.3 0 193 0C171.7 0 150.3 0 128.8 0C107.3 0 85.7 0 64.2 0C42.7 0 21.3 0 10.7 0L0 0Z" fill="#eb400a"></path><path d="M0 112L10.7 107C21.3 102 42.7 92 64.2 94.8C85.7 97.7 107.3 113.3 128.8 115.3C150.3 117.3 171.7 105.7 193 101.7C214.3 97.7 235.7 101.3 257 107.5C278.3 113.7 299.7 122.3 321.2 125.5C342.7 128.7 364.3 126.3 385.8 118.2C407.3 110 428.7 96 450 89.2C471.3 82.3 492.7 82.7 514.2 84C535.7 85.3 557.3 87.7 578.8 95.7C600.3 103.7 621.7 117.3 643 120.3C664.3 123.3 685.7 115.7 707 109C728.3 102.3 749.7 96.7 771.2 94.3C792.7 92 814.3 93 835.8 96.5C857.3 100 878.7 106 889.3 109L900 112L900 0L889.3 0C878.7 0 857.3 0 835.8 0C814.3 0 792.7 0 771.2 0C749.7 0 728.3 0 707 0C685.7 0 664.3 0 643 0C621.7 0 600.3 0 578.8 0C557.3 0 535.7 0 514.2 0C492.7 0 471.3 0 450 0C428.7 0 407.3 0 385.8 0C364.3 0 342.7 0 321.2 0C299.7 0 278.3 0 257 0C235.7 0 214.3 0 193 0C171.7 0 150.3 0 128.8 0C107.3 0 85.7 0 64.2 0C42.7 0 21.3 0 10.7 0L0 0Z" fill="#f32f2a"></path><path d="M0 102L10.7 101.8C21.3 101.7 42.7 101.3 64.2 98.8C85.7 96.3 107.3 91.7 128.8 92C150.3 92.3 171.7 97.7 193 100.2C214.3 102.7 235.7 102.3 257 101.3C278.3 100.3 299.7 98.7 321.2 94.7C342.7 90.7 364.3 84.3 385.8 84.3C407.3 84.3 428.7 90.7 450 90.5C471.3 90.3 492.7 83.7 514.2 81.3C535.7 79 557.3 81 578.8 80.5C600.3 80 621.7 77 643 79.7C664.3 82.3 685.7 90.7 707 92.2C728.3 93.7 749.7 88.3 771.2 86.5C792.7 84.7 814.3 86.3 835.8 89.8C857.3 93.3 878.7 98.7 889.3 101.3L900 104L900 0L889.3 0C878.7 0 857.3 0 835.8 0C814.3 0 792.7 0 771.2 0C749.7 0 728.3 0 707 0C685.7 0 664.3 0 643 0C621.7 0 600.3 0 578.8 0C557.3 0 535.7 0 514.2 0C492.7 0 471.3 0 450 0C428.7 0 407.3 0 385.8 0C364.3 0 342.7 0 321.2 0C299.7 0 278.3 0 257 0C235.7 0 214.3 0 193 0C171.7 0 150.3 0 128.8 0C107.3 0 85.7 0 64.2 0C42.7 0 21.3 0 10.7 0L0 0Z" fill="#f81b41"></path><path d="M0 82L10.7 82.3C21.3 82.7 42.7 83.3 64.2 82C85.7 80.7 107.3 77.3 128.8 77.5C150.3 77.7 171.7 81.3 193 79.3C214.3 77.3 235.7 69.7 257 66.3C278.3 63 299.7 64 321.2 66.3C342.7 68.7 364.3 72.3 385.8 74.8C407.3 77.3 428.7 78.7 450 80.5C471.3 82.3 492.7 84.7 514.2 80.5C535.7 76.3 557.3 65.7 578.8 62.7C600.3 59.7 621.7 64.3 643 64.3C664.3 64.3 685.7 59.7 707 58C728.3 56.3 749.7 57.7 771.2 61.5C792.7 65.3 814.3 71.7 835.8 72.5C857.3 73.3 878.7 68.7 889.3 66.3L900 64L900 0L889.3 0C878.7 0 857.3 0 835.8 0C814.3 0 792.7 0 771.2 0C749.7 0 728.3 0 707 0C685.7 0 664.3 0 643 0C621.7 0 600.3 0 578.8 0C557.3 0 535.7 0 514.2 0C492.7 0 471.3 0 450 0C428.7 0 407.3 0 385.8 0C364.3 0 342.7 0 321.2 0C299.7 0 278.3 0 257 0C235.7 0 214.3 0 193 0C171.7 0 150.3 0 128.8 0C107.3 0 85.7 0 64.2 0C42.7 0 21.3 0 10.7 0L0 0Z" fill="#fa0056"></path><path d="M0 62L10.7 63.3C21.3 64.7 42.7 67.3 64.2 64.2C85.7 61 107.3 52 128.8 50.7C150.3 49.3 171.7 55.7 193 55.3C214.3 55 235.7 48 257 45.5C278.3 43 299.7 45 321.2 48C342.7 51 364.3 55 385.8 58C407.3 61 428.7 63 450 60C471.3 57 492.7 49 514.2 49C535.7 49 557.3 57 578.8 60.5C600.3 64 621.7 63 643 61.2C664.3 59.3 685.7 56.7 707 55C728.3 53.3 749.7 52.7 771.2 53.3C792.7 54 814.3 56 835.8 55C857.3 54 878.7 50 889.3 48L900 46L900 0L889.3 0C878.7 0 857.3 0 835.8 0C814.3 0 792.7 0 771.2 0C749.7 0 728.3 0 707 0C685.7 0 664.3 0 643 0C621.7 0 600.3 0 578.8 0C557.3 0 535.7 0 514.2 0C492.7 0 471.3 0 450 0C428.7 0 407.3 0 385.8 0C364.3 0 342.7 0 321.2 0C299.7 0 278.3 0 257 0C235.7 0 214.3 0 193 0C171.7 0 150.3 0 128.8 0C107.3 0 85.7 0 64.2 0C42.7 0 21.3 0 10.7 0L0 0Z" fill="#f9006b"></path><path d="M0 32L10.7 32.8C21.3 33.7 42.7 35.3 64.2 36.8C85.7 38.3 107.3 39.7 128.8 39.7C150.3 39.7 171.7 38.3 193 37.5C214.3 36.7 235.7 36.3 257 37.3C278.3 38.3 299.7 40.7 321.2 41C342.7 41.3 364.3 39.7 385.8 41.2C407.3 42.7 428.7 47.3 450 48.2C471.3 49 492.7 46 514.2 43.2C535.7 40.3 557.3 37.7 578.8 37.7C600.3 37.7 621.7 40.3 643 40C664.3 39.7 685.7 36.3 707 35.7C728.3 35 749.7 37 771.2 37C792.7 37 814.3 35 835.8 36.3C857.3 37.7 878.7 42.3 889.3 44.7L900 47L900 0L889.3 0C878.7 0 857.3 0 835.8 0C814.3 0 792.7 0 771.2 0C749.7 0 728.3 0 707 0C685.7 0 664.3 0 643 0C621.7 0 600.3 0 578.8 0C557.3 0 535.7 0 514.2 0C492.7 0 471.3 0 450 0C428.7 0 407.3 0 385.8 0C364.3 0 342.7 0 321.2 0C299.7 0 278.3 0 257 0C235.7 0 214.3 0 193 0C171.7 0 150.3 0 128.8 0C107.3 0 85.7 0 64.2 0C42.7 0 21.3 0 10.7 0L0 0Z" fill="#f40080"></path><path d="M0 28L10.7 25.5C21.3 23 42.7 18 64.2 15.8C85.7 13.7 107.3 14.3 128.8 17C150.3 19.7 171.7 24.3 193 25.5C214.3 26.7 235.7 24.3 257 24.2C278.3 24 299.7 26 321.2 25C342.7 24 364.3 20 385.8 18.7C407.3 17.3 428.7 18.7 450 19.5C471.3 20.3 492.7 20.7 514.2 21.5C535.7 22.3 557.3 23.7 578.8 22.3C600.3 21 621.7 17 643 17.8C664.3 18.7 685.7 24.3 707 27.3C728.3 30.3 749.7 30.7 771.2 27.5C792.7 24.3 814.3 17.7 835.8 17.2C857.3 16.7 878.7 22.3 889.3 25.2L900 28L900 0L889.3 0C878.7 0 857.3 0 835.8 0C814.3 0 792.7 0 771.2 0C749.7 0 728.3 0 707 0C685.7 0 664.3 0 643 0C621.7 0 600.3 0 578.8 0C557.3 0 535.7 0 514.2 0C492.7 0 471.3 0 450 0C428.7 0 407.3 0 385.8 0C364.3 0 342.7 0 321.2 0C299.7 0 278.3 0 257 0C235.7 0 214.3 0 193 0C171.7 0 150.3 0 128.8 0C107.3 0 85.7 0 64.2 0C42.7 0 21.3 0 10.7 0L0 0Z" fill="#eb0a95"></path></svg>