<svg id="visual" viewBox="0 0 450 50" width="450" height="50" xmlns="http://www.w3.org/2000/svg" xmlns:xlink="http://www.w3.org/1999/xlink" version="1.1"><path d="M0 27L3.3 24C6.7 21 13.3 15 19.8 14.5C26.3 14 32.7 19 39.2 21C45.7 23 52.3 22 58.8 19.7C65.3 17.3 71.7 13.7 78.2 13C84.7 12.3 91.3 14.7 97.8 15C104.3 15.3 110.7 13.7 117.2 13.3C123.7 13 130.3 14 137 16C143.7 18 150.3 21 156.8 23C163.3 25 169.7 26 176.2 26.5C182.7 27 189.3 27 195.8 26.7C202.3 26.3 208.7 25.7 215.2 27.5C221.7 29.3 228.3 33.7 234.8 35.5C241.3 37.3 247.7 36.7 254.2 32C260.7 27.3 267.3 18.7 273.8 16.8C280.3 15 286.7 20 293.2 23.8C299.7 27.7 306.3 30.3 313 29.5C319.7 28.7 326.3 24.3 332.8 23.8C339.3 23.3 345.7 26.7 352.2 27.8C358.7 29 365.3 28 371.8 28.3C378.3 28.7 384.7 30.3 391.2 28.3C397.7 26.3 404.3 20.7 410.8 21.3C417.3 22 423.7 29 430.2 29.7C436.7 30.3 443.3 24.7 446.7 21.8L450 19L450 51L446.7 51C443.3 51 436.7 51 430.2 51C423.7 51 417.3 51 410.8 51C404.3 51 397.7 51 391.2 51C384.7 51 378.3 51 371.8 51C365.3 51 358.7 51 352.2 51C345.7 51 339.3 51 332.8 51C326.3 51 319.7 51 313 51C306.3 51 299.7 51 293.2 51C286.7 51 280.3 51 273.8 51C267.3 51 260.7 51 254.2 51C247.7 51 241.3 51 234.8 51C228.3 51 221.7 51 215.2 51C208.7 51 202.3 51 195.8 51C189.3 51 182.7 51 176.2 51C169.7 51 163.3 51 156.8 51C150.3 51 143.7 51 137 51C130.3 51 123.7 51 117.2 51C110.7 51 104.3 51 97.8 51C91.3 51 84.7 51 78.2 51C71.7 51 65.3 51 58.8 51C52.3 51 45.7 51 39.2 51C32.7 51 26.3 51 19.8 51C13.3 51 6.7 51 3.3 51L0 51Z" fill="#eb400a"></path><path d="M0 39L3.3 38.7C6.7 38.3 13.3 37.7 19.8 37.3C26.3 37 32.7 37 39.2 35.2C45.7 33.3 52.3 29.7 58.8 29.7C65.3 29.7 71.7 33.3 78.2 35C84.7 36.7 91.3 36.3 97.8 34.7C104.3 33 110.7 30 117.2 29.5C123.7 29 130.3 31 137 30.7C143.7 30.3 150.3 27.7 156.8 24.3C163.3 21 169.7 17 176.2 19C182.7 21 189.3 29 195.8 29.2C202.3 29.3 208.7 21.7 215.2 19.8C221.7 18 228.3 22 234.8 23.3C241.3 24.7 247.7 23.3 254.2 21.7C260.7 20 267.3 18 273.8 20.7C280.3 23.3 286.7 30.7 293.2 30.3C299.7 30 306.3 22 313 21C319.7 20 326.3 26 332.8 28.3C339.3 30.7 345.7 29.3 352.2 28.2C358.7 27 365.3 26 371.8 24.7C378.3 23.3 384.7 21.7 391.2 22.3C397.7 23 404.3 26 410.8 28.7C417.3 31.3 423.7 33.7 430.2 34.8C436.7 36 443.3 36 446.7 36L450 36L450 51L446.7 51C443.3 51 436.7 51 430.2 51C423.7 51 417.3 51 410.8 51C404.3 51 397.7 51 391.2 51C384.7 51 378.3 51 371.8 51C365.3 51 358.7 51 352.2 51C345.7 51 339.3 51 332.8 51C326.3 51 319.7 51 313 51C306.3 51 299.7 51 293.2 51C286.7 51 280.3 51 273.8 51C267.3 51 260.7 51 254.2 51C247.7 51 241.3 51 234.8 51C228.3 51 221.7 51 215.2 51C208.7 51 202.3 51 195.8 51C189.3 51 182.7 51 176.2 51C169.7 51 163.3 51 156.8 51C150.3 51 143.7 51 137 51C130.3 51 123.7 51 117.2 51C110.7 51 104.3 51 97.8 51C91.3 51 84.7 51 78.2 51C71.7 51 65.3 51 58.8 51C52.3 51 45.7 51 39.2 51C32.7 51 26.3 51 19.8 51C13.3 51 6.7 51 3.3 51L0 51Z" fill="#eb3321"></path><path d="M0 36L3.3 34.7C6.7 33.3 13.3 30.7 19.8 27.8C26.3 25 32.7 22 39.2 22C45.7 22 52.3 25 58.8 24.5C65.3 24 71.7 20 78.2 21C84.7 22 91.3 28 97.8 32C104.3 36 110.7 38 117.2 36.5C123.7 35 130.3 30 137 29.2C143.7 28.3 150.3 31.7 156.8 32.8C163.3 34 169.7 33 176.2 33C182.7 33 189.3 34 195.8 34C202.3 34 208.7 33 215.2 33.2C221.7 33.3 228.3 34.7 234.8 35.3C241.3 36 247.7 36 254.2 36.5C260.7 37 267.3 38 273.8 35.3C280.3 32.7 286.7 26.3 293.2 23.3C299.7 20.3 306.3 20.7 313 22.3C319.7 24 326.3 27 332.8 28C339.3 29 345.7 28 352.2 28C358.7 28 365.3 29 371.8 30.5C378.3 32 384.7 34 391.2 33.8C397.7 33.7 404.3 31.3 410.8 31.7C417.3 32 423.7 35 430.2 33.2C436.7 31.3 443.3 24.7 446.7 21.3L450 18L450 51L446.7 51C443.3 51 436.7 51 430.2 51C423.7 51 417.3 51 410.8 51C404.3 51 397.7 51 391.2 51C384.7 51 378.3 51 371.8 51C365.3 51 358.7 51 352.2 51C345.7 51 339.3 51 332.8 51C326.3 51 319.7 51 313 51C306.3 51 299.7 51 293.2 51C286.7 51 280.3 51 273.8 51C267.3 51 260.7 51 254.2 51C247.7 51 241.3 51 234.8 51C228.3 51 221.7 51 215.2 51C208.7 51 202.3 51 195.8 51C189.3 51 182.7 51 176.2 51C169.7 51 163.3 51 156.8 51C150.3 51 143.7 51 137 51C130.3 51 123.7 51 117.2 51C110.7 51 104.3 51 97.8 51C91.3 51 84.7 51 78.2 51C71.7 51 65.3 51 58.8 51C52.3 51 45.7 51 39.2 51C32.7 51 26.3 51 19.8 51C13.3 51 6.7 51 3.3 51L0 51Z" fill="#ea2630"></path><path d="M0 24L3.3 24.3C6.7 24.7 13.3 25.3 19.8 27.3C26.3 29.3 32.7 32.7 39.2 31.7C45.7 30.7 52.3 25.3 58.8 25.5C65.3 25.7 71.7 31.3 78.2 33C84.7 34.7 91.3 32.3 97.8 31.8C104.3 31.3 110.7 32.7 117.2 34.3C123.7 36 130.3 38 137 36.3C143.7 34.7 150.3 29.3 156.8 27.8C163.3 26.3 169.7 28.7 176.2 30.7C182.7 32.7 189.3 34.3 195.8 35.8C202.3 37.3 208.7 38.7 215.2 37.7C221.7 36.7 228.3 33.3 234.8 32.3C241.3 31.3 247.7 32.7 254.2 33.7C260.7 34.7 267.3 35.3 273.8 35.8C280.3 36.3 286.7 36.7 293.2 35C299.7 33.3 306.3 29.7 313 28.8C319.7 28 326.3 30 332.8 29.2C339.3 28.3 345.7 24.7 352.2 26C358.7 27.3 365.3 33.7 371.8 33.8C378.3 34 384.7 28 391.2 24.8C397.7 21.7 404.3 21.3 410.8 23C417.3 24.7 423.7 28.3 430.2 28.5C436.7 28.7 443.3 25.3 446.7 23.7L450 22L450 51L446.7 51C443.3 51 436.7 51 430.2 51C423.7 51 417.3 51 410.8 51C404.3 51 397.7 51 391.2 51C384.7 51 378.3 51 371.8 51C365.3 51 358.7 51 352.2 51C345.7 51 339.3 51 332.8 51C326.3 51 319.7 51 313 51C306.3 51 299.7 51 293.2 51C286.7 51 280.3 51 273.8 51C267.3 51 260.7 51 254.2 51C247.7 51 241.3 51 234.8 51C228.3 51 221.7 51 215.2 51C208.7 51 202.3 51 195.8 51C189.3 51 182.7 51 176.2 51C169.7 51 163.3 51 156.8 51C150.3 51 143.7 51 137 51C130.3 51 123.7 51 117.2 51C110.7 51 104.3 51 97.8 51C91.3 51 84.7 51 78.2 51C71.7 51 65.3 51 58.8 51C52.3 51 45.7 51 39.2 51C32.7 51 26.3 51 19.8 51C13.3 51 6.7 51 3.3 51L0 51Z" fill="#e7193d"></path><path d="M0 35L3.3 35.5C6.7 36 13.3 37 19.8 37.2C26.3 37.3 32.7 36.7 39.2 36.3C45.7 36 52.3 36 58.8 34.7C65.3 33.3 71.7 30.7 78.2 30.2C84.7 29.7 91.3 31.3 97.8 31C104.3 30.7 110.7 28.3 117.2 29C123.7 29.7 130.3 33.3 137 35C143.7 36.7 150.3 36.3 156.8 36.3C163.3 36.3 169.7 36.7 176.2 36C182.7 35.3 189.3 33.7 195.8 33.8C202.3 34 208.7 36 215.2 36.7C221.7 37.3 228.3 36.7 234.8 36.5C241.3 36.3 247.7 36.7 254.2 34.8C260.7 33 267.3 29 273.8 26.8C280.3 24.7 286.7 24.3 293.2 25.7C299.7 27 306.3 30 313 32.7C319.7 35.3 326.3 37.7 332.8 38.2C339.3 38.7 345.7 37.3 352.2 35.8C358.7 34.3 365.3 32.7 371.8 33.5C378.3 34.3 384.7 37.7 391.2 36.8C397.7 36 404.3 31 410.8 29.8C417.3 28.7 423.7 31.3 430.2 33.5C436.7 35.7 443.3 37.3 446.7 38.2L450 39L450 51L446.7 51C443.3 51 436.7 51 430.2 51C423.7 51 417.3 51 410.8 51C404.3 51 397.7 51 391.2 51C384.7 51 378.3 51 371.8 51C365.3 51 358.7 51 352.2 51C345.7 51 339.3 51 332.8 51C326.3 51 319.7 51 313 51C306.3 51 299.7 51 293.2 51C286.7 51 280.3 51 273.8 51C267.3 51 260.7 51 254.2 51C247.7 51 241.3 51 234.8 51C228.3 51 221.7 51 215.2 51C208.7 51 202.3 51 195.8 51C189.3 51 182.7 51 176.2 51C169.7 51 163.3 51 156.8 51C150.3 51 143.7 51 137 51C130.3 51 123.7 51 117.2 51C110.7 51 104.3 51 97.8 51C91.3 51 84.7 51 78.2 51C71.7 51 65.3 51 58.8 51C52.3 51 45.7 51 39.2 51C32.7 51 26.3 51 19.8 51C13.3 51 6.7 51 3.3 51L0 51Z" fill="#e20a49"></path><path d="M0 40L3.3 39.2C6.7 38.3 13.3 36.7 19.8 36.7C26.3 36.7 32.7 38.3 39.2 37.7C45.7 37 52.3 34 58.8 33.5C65.3 33 71.7 35 78.2 34.3C84.7 33.7 91.3 30.3 97.8 28.5C104.3 26.7 110.7 26.3 117.2 28.5C123.7 30.7 130.3 35.3 137 37.8C143.7 40.3 150.3 40.7 156.8 38.7C163.3 36.7 169.7 32.3 176.2 31.2C182.7 30 189.3 32 195.8 32.2C202.3 32.3 208.7 30.7 215.2 30.8C221.7 31 228.3 33 234.8 34.5C241.3 36 247.7 37 254.2 38.2C260.7 39.3 267.3 40.7 273.8 39.3C280.3 38 286.7 34 293.2 33.5C299.7 33 306.3 36 313 36.8C319.7 37.7 326.3 36.3 332.8 34.8C339.3 33.3 345.7 31.7 352.2 32.3C358.7 33 365.3 36 371.8 35.8C378.3 35.7 384.7 32.3 391.2 32C397.7 31.7 404.3 34.3 410.8 35.3C417.3 36.3 423.7 35.7 430.2 34.7C436.7 33.7 443.3 32.3 446.7 31.7L450 31L450 51L446.7 51C443.3 51 436.7 51 430.2 51C423.7 51 417.3 51 410.8 51C404.3 51 397.7 51 391.2 51C384.7 51 378.3 51 371.8 51C365.3 51 358.7 51 352.2 51C345.7 51 339.3 51 332.8 51C326.3 51 319.7 51 313 51C306.3 51 299.7 51 293.2 51C286.7 51 280.3 51 273.8 51C267.3 51 260.7 51 254.2 51C247.7 51 241.3 51 234.8 51C228.3 51 221.7 51 215.2 51C208.7 51 202.3 51 195.8 51C189.3 51 182.7 51 176.2 51C169.7 51 163.3 51 156.8 51C150.3 51 143.7 51 137 51C130.3 51 123.7 51 117.2 51C110.7 51 104.3 51 97.8 51C91.3 51 84.7 51 78.2 51C71.7 51 65.3 51 58.8 51C52.3 51 45.7 51 39.2 51C32.7 51 26.3 51 19.8 51C13.3 51 6.7 51 3.3 51L0 51Z" fill="#dc0054"></path><path d="M0 43L3.3 42.8C6.7 42.7 13.3 42.3 19.8 42C26.3 41.7 32.7 41.3 39.2 41C45.7 40.7 52.3 40.3 58.8 40C65.3 39.7 71.7 39.3 78.2 39C84.7 38.7 91.3 38.3 97.8 37.5C104.3 36.7 110.7 35.3 117.2 34.3C123.7 33.3 130.3 32.7 137 33.7C143.7 34.7 150.3 37.3 156.8 39.3C163.3 41.3 169.7 42.7 176.2 41.8C182.7 41 189.3 38 195.8 37.3C202.3 36.7 208.7 38.3 215.2 39C221.7 39.7 228.3 39.3 234.8 39C241.3 38.7 247.7 38.3 254.2 38.8C260.7 39.3 267.3 40.7 273.8 39.3C280.3 38 286.7 34 293.2 34.2C299.7 34.3 306.3 38.7 313 40.8C319.7 43 326.3 43 332.8 41.7C339.3 40.3 345.7 37.7 352.2 36.2C358.7 34.7 365.3 34.3 371.8 33.3C378.3 32.3 384.7 30.7 391.2 32.2C397.7 33.7 404.3 38.3 410.8 38.8C417.3 39.3 423.7 35.7 430.2 33.7C436.7 31.7 443.3 31.3 446.7 31.2L450 31L450 51L446.7 51C443.3 51 436.7 51 430.2 51C423.7 51 417.3 51 410.8 51C404.3 51 397.7 51 391.2 51C384.7 51 378.3 51 371.8 51C365.3 51 358.7 51 352.2 51C345.7 51 339.3 51 332.8 51C326.3 51 319.7 51 313 51C306.3 51 299.7 51 293.2 51C286.7 51 280.3 51 273.8 51C267.3 51 260.7 51 254.2 51C247.7 51 241.3 51 234.8 51C228.3 51 221.7 51 215.2 51C208.7 51 202.3 51 195.8 51C189.3 51 182.7 51 176.2 51C169.7 51 163.3 51 156.8 51C150.3 51 143.7 51 137 51C130.3 51 123.7 51 117.2 51C110.7 51 104.3 51 97.8 51C91.3 51 84.7 51 78.2 51C71.7 51 65.3 51 58.8 51C52.3 51 45.7 51 39.2 51C32.7 51 26.3 51 19.8 51C13.3 51 6.7 51 3.3 51L0 51Z" fill="#d4005e"></path><path d="M0 38L3.3 37.8C6.7 37.7 13.3 37.3 19.8 36.7C26.3 36 32.7 35 39.2 35.5C45.7 36 52.3 38 58.8 39.7C65.3 41.3 71.7 42.7 78.2 43C84.7 43.3 91.3 42.7 97.8 40.8C104.3 39 110.7 36 117.2 35.7C123.7 35.3 130.3 37.7 137 38.3C143.7 39 150.3 38 156.8 37.8C163.3 37.7 169.7 38.3 176.2 38C182.7 37.7 189.3 36.3 195.8 37C202.3 37.7 208.7 40.3 215.2 41.8C221.7 43.3 228.3 43.7 234.8 42.3C241.3 41 247.7 38 254.2 36.7C260.7 35.3 267.3 35.7 273.8 35.5C280.3 35.3 286.7 34.7 293.2 34.3C299.7 34 306.3 34 313 35.2C319.7 36.3 326.3 38.7 332.8 40.2C339.3 41.7 345.7 42.3 352.2 43C358.7 43.7 365.3 44.3 371.8 42.8C378.3 41.3 384.7 37.7 391.2 35.7C397.7 33.7 404.3 33.3 410.8 34.2C417.3 35 423.7 37 430.2 39C436.7 41 443.3 43 446.7 44L450 45L450 51L446.7 51C443.3 51 436.7 51 430.2 51C423.7 51 417.3 51 410.8 51C404.3 51 397.7 51 391.2 51C384.7 51 378.3 51 371.8 51C365.3 51 358.7 51 352.2 51C345.7 51 339.3 51 332.8 51C326.3 51 319.7 51 313 51C306.3 51 299.7 51 293.2 51C286.7 51 280.3 51 273.8 51C267.3 51 260.7 51 254.2 51C247.7 51 241.3 51 234.8 51C228.3 51 221.7 51 215.2 51C208.7 51 202.3 51 195.8 51C189.3 51 182.7 51 176.2 51C169.7 51 163.3 51 156.8 51C150.3 51 143.7 51 137 51C130.3 51 123.7 51 117.2 51C110.7 51 104.3 51 97.8 51C91.3 51 84.7 51 78.2 51C71.7 51 65.3 51 58.8 51C52.3 51 45.7 51 39.2 51C32.7 51 26.3 51 19.8 51C13.3 51 6.7 51 3.3 51L0 51Z" fill="#cb0068"></path><path d="M0 41L3.3 41C6.7 41 13.3 41 19.8 41.2C26.3 41.3 32.7 41.7 39.2 42.3C45.7 43 52.3 44 58.8 44.2C65.3 44.3 71.7 43.7 78.2 42.5C84.7 41.3 91.3 39.7 97.8 39.2C104.3 38.7 110.7 39.3 117.2 39.8C123.7 40.3 130.3 40.7 137 40.3C143.7 40 150.3 39 156.8 38.7C163.3 38.3 169.7 38.7 176.2 38.5C182.7 38.3 189.3 37.7 195.8 37.5C202.3 37.3 208.7 37.7 215.2 37.7C221.7 37.7 228.3 37.3 234.8 37.7C241.3 38 247.7 39 254.2 39.7C260.7 40.3 267.3 40.7 273.8 40.2C280.3 39.7 286.7 38.3 293.2 37.5C299.7 36.7 306.3 36.3 313 37C319.7 37.7 326.3 39.3 332.8 40.3C339.3 41.3 345.7 41.7 352.2 41C358.7 40.3 365.3 38.7 371.8 37.7C378.3 36.7 384.7 36.3 391.2 36.2C397.7 36 404.3 36 410.8 37C417.3 38 423.7 40 430.2 40.3C436.7 40.7 443.3 39.3 446.7 38.7L450 38L450 51L446.7 51C443.3 51 436.7 51 430.2 51C423.7 51 417.3 51 410.8 51C404.3 51 397.7 51 391.2 51C384.7 51 378.3 51 371.8 51C365.3 51 358.7 51 352.2 51C345.7 51 339.3 51 332.8 51C326.3 51 319.7 51 313 51C306.3 51 299.7 51 293.2 51C286.7 51 280.3 51 273.8 51C267.3 51 260.7 51 254.2 51C247.7 51 241.3 51 234.8 51C228.3 51 221.7 51 215.2 51C208.7 51 202.3 51 195.8 51C189.3 51 182.7 51 176.2 51C169.7 51 163.3 51 156.8 51C150.3 51 143.7 51 137 51C130.3 51 123.7 51 117.2 51C110.7 51 104.3 51 97.8 51C91.3 51 84.7 51 78.2 51C71.7 51 65.3 51 58.8 51C52.3 51 45.7 51 39.2 51C32.7 51 26.3 51 19.8 51C13.3 51 6.7 51 3.3 51L0 51Z" fill="#c00071"></path><path d="M0 43L3.3 42.5C6.7 42 13.3 41 19.8 40.3C26.3 39.7 32.7 39.3 39.2 39.5C45.7 39.7 52.3 40.3 58.8 41.5C65.3 42.7 71.7 44.3 78.2 44.8C84.7 45.3 91.3 44.7 97.8 44.3C104.3 44 110.7 44 117.2 44.3C123.7 44.7 130.3 45.3 137 45C143.7 44.7 150.3 43.3 156.8 42.3C163.3 41.3 169.7 40.7 176.2 40.8C182.7 41 189.3 42 195.8 42.8C202.3 43.7 208.7 44.3 215.2 44.2C221.7 44 228.3 43 234.8 43.2C241.3 43.3 247.7 44.7 254.2 44.5C260.7 44.3 267.3 42.7 273.8 41.5C280.3 40.3 286.7 39.7 293.2 39.8C299.7 40 306.3 41 313 41.2C319.7 41.3 326.3 40.7 332.8 41.3C339.3 42 345.7 44 352.2 44.2C358.7 44.3 365.3 42.7 371.8 42.5C378.3 42.3 384.7 43.7 391.2 43.3C397.7 43 404.3 41 410.8 40.2C417.3 39.3 423.7 39.7 430.2 40.2C436.7 40.7 443.3 41.3 446.7 41.7L450 42L450 51L446.7 51C443.3 51 436.7 51 430.2 51C423.7 51 417.3 51 410.8 51C404.3 51 397.7 51 391.2 51C384.7 51 378.3 51 371.8 51C365.3 51 358.7 51 352.2 51C345.7 51 339.3 51 332.8 51C326.3 51 319.7 51 313 51C306.3 51 299.7 51 293.2 51C286.7 51 280.3 51 273.8 51C267.3 51 260.7 51 254.2 51C247.7 51 241.3 51 234.8 51C228.3 51 221.7 51 215.2 51C208.7 51 202.3 51 195.8 51C189.3 51 182.7 51 176.2 51C169.7 51 163.3 51 156.8 51C150.3 51 143.7 51 137 51C130.3 51 123.7 51 117.2 51C110.7 51 104.3 51 97.8 51C91.3 51 84.7 51 78.2 51C71.7 51 65.3 51 58.8 51C52.3 51 45.7 51 39.2 51C32.7 51 26.3 51 19.8 51C13.3 51 6.7 51 3.3 51L0 51Z" fill="#b4007a"></path><path d="M0 43L3.3 43.2C6.7 43.3 13.3 43.7 19.8 43.8C26.3 44 32.7 44 39.2 44.5C45.7 45 52.3 46 58.8 46.5C65.3 47 71.7 47 78.2 46.8C84.7 46.7 91.3 46.3 97.8 46C104.3 45.7 110.7 45.3 117.2 45.5C123.7 45.7 130.3 46.3 137 46C143.7 45.7 150.3 44.3 156.8 43.8C163.3 43.3 169.7 43.7 176.2 43.8C182.7 44 189.3 44 195.8 43.7C202.3 43.3 208.7 42.7 215.2 42.8C221.7 43 228.3 44 234.8 44.7C241.3 45.3 247.7 45.7 254.2 45.3C260.7 45 267.3 44 273.8 44C280.3 44 286.7 45 293.2 45.5C299.7 46 306.3 46 313 46C319.7 46 326.3 46 332.8 45.8C339.3 45.7 345.7 45.3 352.2 45.5C358.7 45.7 365.3 46.3 371.8 46.5C378.3 46.7 384.7 46.3 391.2 45.8C397.7 45.3 404.3 44.7 410.8 44.3C417.3 44 423.7 44 430.2 44.5C436.7 45 443.3 46 446.7 46.5L450 47L450 51L446.7 51C443.3 51 436.7 51 430.2 51C423.7 51 417.3 51 410.8 51C404.3 51 397.7 51 391.2 51C384.7 51 378.3 51 371.8 51C365.3 51 358.7 51 352.2 51C345.7 51 339.3 51 332.8 51C326.3 51 319.7 51 313 51C306.3 51 299.7 51 293.2 51C286.7 51 280.3 51 273.8 51C267.3 51 260.7 51 254.2 51C247.7 51 241.3 51 234.8 51C228.3 51 221.7 51 215.2 51C208.7 51 202.3 51 195.8 51C189.3 51 182.7 51 176.2 51C169.7 51 163.3 51 156.8 51C150.3 51 143.7 51 137 51C130.3 51 123.7 51 117.2 51C110.7 51 104.3 51 97.8 51C91.3 51 84.7 51 78.2 51C71.7 51 65.3 51 58.8 51C52.3 51 45.7 51 39.2 51C32.7 51 26.3 51 19.8 51C13.3 51 6.7 51 3.3 51L0 51Z" fill="#a60d81"></path></svg>