<svg id="visual" viewBox="0 0 576 760" width="576" height="760" xmlns="http://www.w3.org/2000/svg" xmlns:xlink="http://www.w3.org/1999/xlink" version="1.1"><rect x="0" y="0" width="576" height="760" fill="#001220"></rect><defs><linearGradient id="grad1_0" x1="0%" y1="0%" x2="100%" y2="100%"><stop offset="30%" stop-color="#fa7268" stop-opacity="1"></stop><stop offset="70%" stop-color="#fa7268" stop-opacity="1"></stop></linearGradient></defs><defs><linearGradient id="grad1_1" x1="0%" y1="0%" x2="100%" y2="100%"><stop offset="30%" stop-color="#fa7268" stop-opacity="1"></stop><stop offset="70%" stop-color="#723f71" stop-opacity="1"></stop></linearGradient></defs><defs><linearGradient id="grad1_2" x1="0%" y1="0%" x2="100%" y2="100%"><stop offset="30%" stop-color="#001220" stop-opacity="1"></stop><stop offset="70%" stop-color="#723f71" stop-opacity="1"></stop></linearGradient></defs><defs><linearGradient id="grad2_0" x1="0%" y1="0%" x2="100%" y2="100%"><stop offset="30%" stop-color="#fa7268" stop-opacity="1"></stop><stop offset="70%" stop-color="#fa7268" stop-opacity="1"></stop></linearGradient></defs><defs><linearGradient id="grad2_1" x1="0%" y1="0%" x2="100%" y2="100%"><stop offset="30%" stop-color="#723f71" stop-opacity="1"></stop><stop offset="70%" stop-color="#fa7268" stop-opacity="1"></stop></linearGradient></defs><defs><linearGradient id="grad2_2" x1="0%" y1="0%" x2="100%" y2="100%"><stop offset="30%" stop-color="#723f71" stop-opacity="1"></stop><stop offset="70%" stop-color="#001220" stop-opacity="1"></stop></linearGradient></defs><g transform="translate(576, 0)"><path d="M0 238.4C-45.5 234.4 -91.1 230.4 -119.2 206.5C-147.3 182.5 -158 138.7 -174.9 101C-191.9 63.3 -215.2 31.6 -238.4 0L0 0Z" fill="#2c2c4f"></path><path d="M0 158.9C-30.4 156.3 -60.7 153.6 -79.5 137.6C-98.2 121.7 -105.3 92.5 -116.6 67.3C-127.9 42.2 -143.4 21.1 -158.9 0L0 0Z" fill="#bd5079"></path><path d="M0 79.5C-15.2 78.1 -30.4 76.8 -39.7 68.8C-49.1 60.8 -52.7 46.2 -58.3 33.7C-64 21.1 -71.7 10.5 -79.5 0L0 0Z" fill="#fa7268"></path></g><g transform="translate(0, 760)"><path d="M0 -238.4C45.8 -234.5 91.6 -230.6 119.2 -206.5C146.8 -182.3 156.4 -137.8 173.2 -100C190 -62.2 214.2 -31.1 238.4 0L0 0Z" fill="#2c2c4f"></path><path d="M0 -158.9C30.5 -156.3 61 -153.8 79.5 -137.6C97.9 -121.5 104.2 -91.9 115.5 -66.7C126.7 -41.5 142.8 -20.7 158.9 0L0 0Z" fill="#bd5079"></path><path d="M0 -79.5C15.3 -78.2 30.5 -76.9 39.7 -68.8C48.9 -60.8 52.1 -45.9 57.7 -33.3C63.3 -20.7 71.4 -10.4 79.5 0L0 0Z" fill="#fa7268"></path></g></svg>