<?xml version="1.0" encoding="utf-8"?>
<svg viewBox="-459.789 -117.939 1366.592 759.807" xmlns="http://www.w3.org/2000/svg">
  <g transform="matrix(1, 0, 0, 1, 906.247192, -117.084869)">
    <path d="M0 380C-73.6 374.2 -147.3 368.4 -190 329.1C-232.7 289.8 -244.6 216.9 -271.1 156.5C-297.6 96.1 -338.8 48 -380 0L0 0Z" fill="#2c2c4f"/>
    <path d="M0 253.3C-49.1 249.5 -98.2 245.6 -126.7 219.4C-155.2 193.2 -163 144.6 -180.7 104.3C-198.4 64 -225.9 32 -253.3 0L0 0Z" fill="#bd5079"/>
    <path d="M0 126.7C-24.5 124.7 -49.1 122.8 -63.3 109.7C-77.6 96.6 -81.5 72.3 -90.4 52.2C-99.2 32 -112.9 16 -126.7 0L0 0Z" fill="#fa7268"/>
  </g>
  <g transform="matrix(1, 0, 0, 1, -459.752777, 642.9151)">
    <path d="M0 -380C55.8 -352.2 111.5 -324.4 171 -296.2C230.5 -268 293.6 -239.4 329.1 -190C364.5 -140.6 372.3 -70.3 380 0L0 0Z" fill="#2c2c4f"/>
    <path d="M0 -253.3C37.2 -234.8 74.4 -216.2 114 -197.5C153.6 -178.7 195.8 -159.6 219.4 -126.7C243 -93.7 248.2 -46.9 253.3 0L0 0Z" fill="#bd5079"/>
    <path d="M0 -126.7C18.6 -117.4 37.2 -108.1 57 -98.7C76.8 -89.3 97.9 -79.8 109.7 -63.3C121.5 -46.9 124.1 -23.4 126.7 0L0 0Z" fill="#fa7268"/>
  </g>
</svg>