<svg id="visual" viewBox="0 0 900 150" width="900" height="150" xmlns="http://www.w3.org/2000/svg" xmlns:xlink="http://www.w3.org/1999/xlink" version="1.1"><path d="M0 44L10 52.3C20 60.7 40 77.3 60 80.7C80 84 100 74 120 63.2C140 52.3 160 40.7 180 46.3C200 52 220 75 240 81C260 87 280 76 300 65.7C320 55.3 340 45.7 360 51.2C380 56.7 400 77.3 420 80.8C440 84.3 460 70.7 480 62.7C500 54.7 520 52.3 540 47C560 41.7 580 33.3 600 29.7C620 26 640 27 660 37.8C680 48.7 700 69.3 720 75C740 80.7 760 71.3 780 68.2C800 65 820 68 840 65C860 62 880 53 890 48.5L900 44L900 0L890 0C880 0 860 0 840 0C820 0 800 0 780 0C760 0 740 0 720 0C700 0 680 0 660 0C640 0 620 0 600 0C580 0 560 0 540 0C520 0 500 0 480 0C460 0 440 0 420 0C400 0 380 0 360 0C340 0 320 0 300 0C280 0 260 0 240 0C220 0 200 0 180 0C160 0 140 0 120 0C100 0 80 0 60 0C40 0 20 0 10 0L0 0Z" fill="#fa7268"></path><path d="M0 21L10 21.5C20 22 40 23 60 30C80 37 100 50 120 56.5C140 63 160 63 180 60.7C200 58.3 220 53.7 240 55.5C260 57.3 280 65.7 300 60.2C320 54.7 340 35.3 360 27.8C380 20.3 400 24.7 420 31.8C440 39 460 49 480 49C500 49 520 39 540 38.5C560 38 580 47 600 46C620 45 640 34 660 33.7C680 33.3 700 43.7 720 44.7C740 45.7 760 37.3 780 41.7C800 46 820 63 840 69.2C860 75.3 880 70.7 890 68.3L900 66L900 0L890 0C880 0 860 0 840 0C820 0 800 0 780 0C760 0 740 0 720 0C700 0 680 0 660 0C640 0 620 0 600 0C580 0 560 0 540 0C520 0 500 0 480 0C460 0 440 0 420 0C400 0 380 0 360 0C340 0 320 0 300 0C280 0 260 0 240 0C220 0 200 0 180 0C160 0 140 0 120 0C100 0 80 0 60 0C40 0 20 0 10 0L0 0Z" fill="#bc5175"></path><path d="M0 29L10 27.3C20 25.7 40 22.3 60 23C80 23.7 100 28.3 120 26.5C140 24.7 160 16.3 180 13C200 9.7 220 11.3 240 17.7C260 24 280 35 300 40.3C320 45.7 340 45.3 360 47.5C380 49.7 400 54.3 420 51.7C440 49 460 39 480 31.3C500 23.7 520 18.3 540 22.7C560 27 580 41 600 42.3C620 43.7 640 32.3 660 28C680 23.7 700 26.3 720 27.5C740 28.7 760 28.3 780 28.8C800 29.3 820 30.7 840 30.2C860 29.7 880 27.3 890 26.2L900 25L900 0L890 0C880 0 860 0 840 0C820 0 800 0 780 0C760 0 740 0 720 0C700 0 680 0 660 0C640 0 620 0 600 0C580 0 560 0 540 0C520 0 500 0 480 0C460 0 440 0 420 0C400 0 380 0 360 0C340 0 320 0 300 0C280 0 260 0 240 0C220 0 200 0 180 0C160 0 140 0 120 0C100 0 80 0 60 0C40 0 20 0 10 0L0 0Z" fill="#733e6a"></path><path d="M0 2L10 3.2C20 4.3 40 6.7 60 8.2C80 9.7 100 10.3 120 10.3C140 10.3 160 9.7 180 11.5C200 13.3 220 17.7 240 20.5C260 23.3 280 24.7 300 25.2C320 25.7 340 25.3 360 25.3C380 25.3 400 25.7 420 21.7C440 17.7 460 9.3 480 9C500 8.7 520 16.3 540 22.2C560 28 580 32 600 28.5C620 25 640 14 660 8.5C680 3 700 3 720 4C740 5 760 7 780 12C800 17 820 25 840 24.5C860 24 880 15 890 10.5L900 6L900 0L890 0C880 0 860 0 840 0C820 0 800 0 780 0C760 0 740 0 720 0C700 0 680 0 660 0C640 0 620 0 600 0C580 0 560 0 540 0C520 0 500 0 480 0C460 0 440 0 420 0C400 0 380 0 360 0C340 0 320 0 300 0C280 0 260 0 240 0C220 0 200 0 180 0C160 0 140 0 120 0C100 0 80 0 60 0C40 0 20 0 10 0L0 0Z" fill="#312a48"></path></svg>